<?xml version="1.0" encoding="UTF-8" standalone="no"?>
<!DOCTYPE svg PUBLIC "-//W3C//DTD SVG 1.1//EN" "http://www.w3.org/Graphics/SVG/1.1/DTD/svg11.dtd">
<svg width="32" height="32" viewBox="0 0 256 256" version="1.1" xmlns="http://www.w3.org/2000/svg" xmlns:xlink="http://www.w3.org/1999/xlink" xml:space="preserve" style="fill-rule:evenodd;clip-rule:evenodd;stroke-linejoin:round;stroke-miterlimit:2;">
    <g transform="matrix(1,0,0,1,-1596,-1243)">
        <g id="AccessLevel" transform="matrix(1.07986,0,0,1.07986,885.66,-498.962)">
            <rect x="657.81" y="1613.14" width="237.069" height="237.069" style="fill:none;"/>
            <g transform="matrix(0.92605,0,0,0.92605,-820.165,462.063)">
                <path d="M1834,1281C1834,1275.7 1831.89,1270.61 1828.14,1266.86C1824.39,1263.11 1819.3,1261 1814,1261L1634,1261C1628.7,1261 1623.61,1263.11 1619.86,1266.86C1616.11,1270.61 1614,1275.7 1614,1281L1614,1461C1614,1466.3 1616.11,1471.39 1619.86,1475.14C1623.61,1478.89 1628.7,1481 1634,1481L1814,1481C1819.3,1481 1824.39,1478.89 1828.14,1475.14C1831.89,1471.39 1834,1466.3 1834,1461L1834,1281ZM1724,1433.16C1709.5,1429.54 1697.58,1421.12 1688.26,1407.91C1678.93,1394.7 1674.27,1380.22 1674.27,1364.47L1674.27,1327.48L1724,1308.84L1773.73,1327.48L1773.73,1364.47C1773.73,1380.22 1769.07,1394.7 1759.75,1407.91C1750.42,1421.12 1738.51,1429.54 1724,1433.16ZM1724,1423.53C1734.98,1419.9 1744.07,1413.25 1751.28,1403.56C1758.48,1393.87 1762.7,1383.02 1763.94,1371L1724,1371L1724,1318.94L1683.59,1334.01L1683.59,1364.47C1683.59,1365.72 1683.62,1366.78 1683.67,1367.66C1683.72,1368.54 1683.85,1369.65 1684.06,1371L1724,1371L1724,1423.53Z"
                      style="fill:rgb(var(--accent)); fillRule: nonzero"/>
            </g>
        </g>
    </g>
</svg>
