<?xml version="1.0" encoding="UTF-8" standalone="no"?>
<!DOCTYPE svg PUBLIC "-//W3C//DTD SVG 1.1//EN" "http://www.w3.org/Graphics/SVG/1.1/DTD/svg11.dtd">
<svg width="100%" height="100%" viewBox="0 0 256 256" version="1.1" xmlns="http://www.w3.org/2000/svg" xmlns:xlink="http://www.w3.org/1999/xlink" xml:space="preserve" style="fill-rule:evenodd;clip-rule:evenodd;stroke-linejoin:round;stroke-miterlimit:2;">
    <g transform="matrix(1,0,0,1,-1330,-1243)">
        <g id="Add" transform="matrix(1.07986,0,0,1.07986,619.66,-498.962)">
            <rect x="657.81" y="1613.14" width="237.069" height="237.069" style="fill:none;"/>
            <g transform="matrix(13.3123,0,0,13.3123,616.597,1571.93)">
                <path d="M17,12.655C17,12.746 16.964,12.834 16.899,12.899C16.834,12.964 16.746,13 16.655,13L13.345,13C13.254,13 13.166,13.036 13.101,13.101C13.036,13.166 13,13.254 13,13.345L13,16.655C13,16.746 12.964,16.834 12.899,16.899C12.834,16.964 12.746,17 12.655,17L11.345,17C11.254,17 11.166,16.964 11.101,16.899C11.036,16.834 11,16.746 11,16.655L11,13.345C11,13.254 10.964,13.166 10.899,13.101C10.834,13.036 10.746,13 10.655,13L7.345,13C7.254,13 7.166,12.964 7.101,12.899C7.036,12.834 7,12.746 7,12.655L7,11.345C7,11.254 7.036,11.166 7.101,11.101C7.166,11.036 7.254,11 7.345,11L10.655,11C10.746,11 10.834,10.964 10.899,10.899C10.964,10.834 11,10.746 11,10.655L11,7.345C11,7.254 11.036,7.166 11.101,7.101C11.166,7.036 11.254,7 11.345,7L12.655,7C12.746,7 12.834,7.036 12.899,7.101C12.964,7.166 13,7.254 13,7.345L13,10.655C13,10.746 13.036,10.834 13.101,10.899C13.166,10.964 13.254,11 13.345,11L16.655,11C16.746,11 16.834,11.036 16.899,11.101C16.964,11.166 17,11.254 17,11.345L17,12.655Z"
                      style="fill:rgb(var(--background));"/>
            </g>
        </g>
    </g>
</svg>
