<?xml version="1.0" encoding="UTF-8" standalone="no"?>
<!DOCTYPE svg PUBLIC "-//W3C//DTD SVG 1.1//EN" "http://www.w3.org/Graphics/SVG/1.1/DTD/svg11.dtd">
<svg width="100%" height="100%" viewBox="0 0 256 256" version="1.1" xmlns="http://www.w3.org/2000/svg" xmlns:xlink="http://www.w3.org/1999/xlink" xml:space="preserve" xmlns:serif="http://www.serif.com/" style="fill-rule:evenodd;clip-rule:evenodd;stroke-linejoin:round;stroke-miterlimit:2;">
    <g transform="matrix(1,0,0,1,-5320,-560)">
        <g id="Add" transform="matrix(1.07986,0,0,1.07986,4609.66,-1181.96)">
            <rect x="657.81" y="1613.14" width="237.069" height="237.069" style="fill:none;"/>
            <g transform="matrix(10.1865,0,0,10.1865,654.106,1609.44)">
                <path d="M12,2C6.48,2 2,6.48 2,12C2,17.52 6.48,22 12,22C17.52,22 22,17.52 22,12C22,6.48 17.52,2 12,2ZM17,12.549C17,12.668 16.952,12.783 16.868,12.868C16.783,12.952 16.668,13 16.549,13C15.779,13 14.221,13 13.451,13C13.332,13 13.217,13.048 13.132,13.132C13.048,13.217 13,13.332 13,13.451L13,16.549C13,16.668 12.952,16.783 12.868,16.868C12.783,16.952 12.668,17 12.549,17C12.221,17 11.779,17 11.451,17C11.332,17 11.217,16.952 11.132,16.868C11.048,16.783 11,16.668 11,16.549C11,15.779 11,14.221 11,13.451C11,13.332 10.952,13.217 10.868,13.132C10.783,13.048 10.668,13 10.549,13L7.451,13C7.332,13 7.217,12.952 7.132,12.868C7.048,12.783 7,12.668 7,12.549C7,12.221 7,11.779 7,11.451C7,11.332 7.048,11.217 7.132,11.132C7.217,11.048 7.332,11 7.451,11C8.221,11 9.779,11 10.549,11C10.668,11 10.783,10.952 10.868,10.868C10.952,10.783 11,10.668 11,10.549L11,7.451C11,7.332 11.048,7.217 11.132,7.132C11.217,7.048 11.332,7 11.451,7C11.779,7 12.221,7 12.549,7C12.668,7 12.783,7.048 12.868,7.132C12.952,7.217 13,7.332 13,7.451C13,8.221 13,9.779 13,10.549C13,10.668 13.048,10.783 13.132,10.868C13.217,10.952 13.332,11 13.451,11L16.549,11C16.668,11 16.783,11.048 16.868,11.132C16.952,11.217 17,11.332 17,11.451C17,11.779 17,12.221 17,12.549Z" style="fill:rgb(127,127,127);fill-opacity:0.2;fill-rule:nonzero;"/>
            </g>
        </g>
    </g>
</svg>
