<?xml version="1.0" encoding="UTF-8" standalone="no"?>
<!DOCTYPE svg PUBLIC "-//W3C//DTD SVG 1.1//EN" "http://www.w3.org/Graphics/SVG/1.1/DTD/svg11.dtd">
<svg width="32" height="32" viewBox="0 0 256 257" version="1.1" xmlns="http://www.w3.org/2000/svg" xmlns:xlink="http://www.w3.org/1999/xlink" xml:space="preserve"
     style="fill-rule:evenodd;clip-rule:evenodd;stroke-linejoin:round;stroke-miterlimit:2;">
    <g transform="matrix(1,0,0,1,-2660,-560)">
        <g id="Bool" transform="matrix(1.07986,0,0,1.07986,1949.66,-1181.73)">
            <rect x="657.81" y="1613.14" width="237.069" height="237.069" style="fill:none;"/>
            <g transform="matrix(0.92605,0,0,0.92605,-1805.48,1094.35)">
                <path d="M2898,598.227C2898,592.923 2895.89,587.836 2892.14,584.085C2888.39,580.334 2883.3,578.227 2878,578.227L2698,578.227C2692.7,578.227 2687.61,580.334 2683.86,584.085C2680.11,587.836 2678,592.923 2678,598.227L2678,778.227C2678,783.531 2680.11,788.618 2683.86,792.369C2687.61,796.12 2692.7,798.227 2698,798.227L2878,798.227C2883.3,798.227 2888.39,796.12 2892.14,792.369C2895.89,788.618 2898,783.531 2898,778.227L2898,598.227ZM2726.89,688.227C2726.89,702.729 2738.64,714.486 2753.15,714.486C2773.74,714.486 2802.26,714.486 2822.85,714.486C2829.82,714.486 2836.5,711.719 2841.42,706.795C2846.35,701.87 2849.11,695.191 2849.11,688.227L2849.11,688.227C2849.11,673.725 2837.36,661.968 2822.85,661.968C2802.26,661.968 2773.74,661.968 2753.15,661.968C2738.64,661.968 2726.89,673.725 2726.89,688.227L2726.89,688.227ZM2821.97,708.051C2811.03,708.051 2802.15,699.168 2802.15,688.227C2802.15,677.286 2811.03,668.403 2821.97,668.403C2832.91,668.403 2841.8,677.286 2841.8,688.227C2841.8,699.168 2832.91,708.051 2821.97,708.051Z"
                      style="fill:rgb(var(--accent)); fillRule: nonzero"/>
            </g>
        </g>
    </g>
</svg>
