<?xml version="1.0" encoding="UTF-8" standalone="no"?>
<!DOCTYPE svg PUBLIC "-//W3C//DTD SVG 1.1//EN" "http://www.w3.org/Graphics/SVG/1.1/DTD/svg11.dtd">
<svg width="100%" height="100%" viewBox="0 0 256 257" version="1.1" xmlns="http://www.w3.org/2000/svg" xmlns:xlink="http://www.w3.org/1999/xlink" xml:space="preserve" xmlns:serif="http://www.serif.com/" style="fill-rule:evenodd;clip-rule:evenodd;stroke-linejoin:round;stroke-miterlimit:2;">
    <g transform="matrix(1,0,0,1,-1596,-560)">
        <g id="Dark" transform="matrix(1.07986,0,0,1.07986,885.66,-1181.73)">
            <rect x="657.81" y="1613.14" width="237.069" height="237.069" style="fill:none;"/>
            <g transform="matrix(9.2605,0,0,9.2605,665.219,1620.55)">
                <path d="M12,3C7.03,3 3,7.03 3,12C3,16.97 7.03,21 12,21C16.97,21 21,16.97 21,12C21,11.54 20.96,11.08 20.9,10.64C19.92,12.01 18.32,12.9 16.5,12.9C13.52,12.9 11.1,10.48 11.1,7.5C11.1,5.69 11.99,4.08 13.36,3.1C12.92,3.04 12.46,3 12,3Z" style="fill:rgb(235,235,235);fill-rule:nonzero;"/>
            </g>
        </g>
    </g>
</svg>
