<?xml version="1.0" encoding="UTF-8" standalone="no"?>
<!DOCTYPE svg PUBLIC "-//W3C//DTD SVG 1.1//EN" "http://www.w3.org/Graphics/SVG/1.1/DTD/svg11.dtd">
<svg width="100%" height="100%" viewBox="0 0 256 256" version="1.1" xmlns="http://www.w3.org/2000/svg" xmlns:xlink="http://www.w3.org/1999/xlink" xml:space="preserve" style="fill-rule:evenodd;clip-rule:evenodd;stroke-linejoin:round;stroke-miterlimit:2;">
    <g transform="matrix(1,0,0,1,0,-2058)">
        <g id="Dashboard" transform="matrix(1.07986,0,0,1.07986,-710.34,316.038)">
            <rect x="657.81" y="1613.14" width="237.069" height="237.069" style="fill:none;"/>
            <g transform="matrix(0.956806,0,0,0.956806,653.869,-359.906)">
                <path d="M51.365,2271.38C45.847,2271.38 40.717,2268.55 37.782,2263.88C27.598,2247.51 21.692,2228.21 21.692,2207.54C21.692,2148.78 69.397,2101.07 128.156,2101.07C186.916,2101.07 234.621,2148.78 234.621,2207.54C234.621,2228.21 228.715,2247.51 218.5,2263.86C215.571,2268.52 210.453,2271.35 204.948,2271.35C175.98,2271.38 80.333,2271.38 51.365,2271.38ZM113.225,2222.04C117.394,2226.26 123.058,2228.63 128.957,2228.63C133.307,2228.63 137.529,2227.34 141.118,2224.97C142.965,2223.77 144.544,2222.2 145.757,2220.37C151.406,2211.87 177.414,2172.46 193.858,2147.55C195.17,2145.56 194.896,2142.93 193.205,2141.25C191.513,2139.57 188.873,2139.32 186.898,2140.65C162.235,2157.26 123.315,2183.47 114.874,2189.15C113.056,2190.38 111.508,2191.96 110.325,2193.8C107.991,2197.46 106.703,2201.74 106.703,2206.15C106.703,2212.11 109.051,2217.83 113.225,2222.04Z"
                      style="fill:rgb(var(--background));"/>
            </g>
        </g>
    </g>
</svg>
