<?xml version="1.0" encoding="UTF-8" standalone="no"?>
<!DOCTYPE svg PUBLIC "-//W3C//DTD SVG 1.1//EN" "http://www.w3.org/Graphics/SVG/1.1/DTD/svg11.dtd">
<svg width="100%" height="100%" viewBox="0 0 256 256" version="1.1" xmlns="http://www.w3.org/2000/svg" xmlns:xlink="http://www.w3.org/1999/xlink" xml:space="preserve" style="fill-rule:evenodd;clip-rule:evenodd;stroke-linejoin:round;stroke-miterlimit:2;">
    <g transform="matrix(1,0,0,1,-286,-2058)">
        <g id="Datalog" transform="matrix(1.07986,0,0,1.07986,-424.34,316.038)">
            <rect x="657.81" y="1613.14" width="237.069" height="237.069" style="fill:none;"/>
            <g transform="matrix(9.2605,0,0,9.2605,665.219,1620.76)">
                <path d="M19,3L5,3C3.9,3 3,3.9 3,5L3,19C3,20.1 3.9,21 5,21L19,21C20.1,21 21,20.1 21,19L21,5C21,3.9 20.1,3 19,3ZM9,17L7,17L7,12L9,12L9,17ZM13,17L11,17L11,14L13,14L13,17ZM13,12L11,12L11,10L13,10L13,12ZM17,17L15,17L15,7L17,7L17,17Z"
                      style="fill:rgb(var(--background));fill-rule:nonzero;"/>
            </g>
        </g>
    </g>
</svg>
