<?xml version="1.0" encoding="UTF-8" standalone="no"?>
<!DOCTYPE svg PUBLIC "-//W3C//DTD SVG 1.1//EN" "http://www.w3.org/Graphics/SVG/1.1/DTD/svg11.dtd">
<svg width="32" height="32" viewBox="0 0 256 257" version="1.1" xmlns="http://www.w3.org/2000/svg" xmlns:xlink="http://www.w3.org/1999/xlink" xml:space="preserve"
     style="fill-rule:evenodd;clip-rule:evenodd;stroke-linejoin:round;stroke-miterlimit:2;">
    <g transform="matrix(1,0,0,1,-3192,-560)">
        <g id="DayOfWeek" transform="matrix(1.07986,0,0,1.07986,2481.66,-1181.73)">
            <rect x="657.81" y="1613.14" width="237.069" height="237.069" style="fill:none;"/>
            <g transform="matrix(0.92605,0,0,0.92605,-2298.14,1094.35)">
                <path d="M3430,598.227C3430,592.923 3427.89,587.836 3424.14,584.085C3420.39,580.334 3415.3,578.227 3410,578.227L3230,578.227C3224.7,578.227 3219.61,580.334 3215.86,584.085C3212.11,587.836 3210,592.923 3210,598.227L3210,778.227C3210,783.531 3212.11,788.618 3215.86,792.369C3219.61,796.12 3224.7,798.227 3230,798.227L3410,798.227C3415.3,798.227 3420.39,796.12 3424.14,792.369C3427.89,788.618 3430,783.531 3430,778.227L3430,598.227ZM3276.65,635.949L3267.56,635.949C3265.26,635.949 3263.05,636.862 3261.43,638.488C3259.8,640.114 3258.89,642.319 3258.89,644.619L3258.89,740.97C3258.89,743.269 3259.8,745.474 3261.43,747.1C3263.05,748.726 3265.26,749.64 3267.56,749.64L3372.44,749.64C3374.74,749.64 3376.95,748.726 3378.57,747.1C3380.2,745.474 3381.11,743.269 3381.11,740.97L3381.11,644.619C3381.11,642.319 3380.2,640.114 3378.57,638.488C3376.95,636.862 3374.74,635.949 3372.44,635.949L3363.35,635.949L3363.35,646.181C3363.35,649.328 3361.99,652.346 3359.59,654.571C3357.18,656.796 3353.92,658.046 3350.52,658.046C3350.52,658.046 3350.52,658.046 3350.52,658.046C3347.12,658.046 3343.86,656.796 3341.45,654.571C3339.05,652.346 3337.7,649.328 3337.7,646.181L3337.7,635.949L3302.3,635.949L3302.3,646.181C3302.3,649.328 3300.95,652.346 3298.55,654.571C3296.14,656.796 3292.88,658.046 3289.48,658.046C3289.48,658.046 3289.48,658.046 3289.48,658.046C3286.08,658.046 3282.82,656.796 3280.41,654.571C3278.01,652.346 3276.65,649.328 3276.65,646.181L3276.65,635.949ZM3368.25,670.954C3368.25,669.676 3367.74,668.451 3366.84,667.548C3365.93,666.644 3364.71,666.137 3363.43,666.137C3347.01,666.137 3293.3,666.137 3276.87,666.137C3275.6,666.137 3274.37,666.644 3273.47,667.548C3272.56,668.451 3272.06,669.676 3272.06,670.954C3272.06,683.847 3272.06,719.037 3272.06,731.93C3272.06,733.207 3272.56,734.432 3273.47,735.336C3274.37,736.239 3275.6,736.746 3276.87,736.746C3293.3,736.746 3347.01,736.746 3363.43,736.746C3364.71,736.746 3365.93,736.239 3366.84,735.336C3367.74,734.432 3368.25,733.207 3368.25,731.93C3368.25,719.037 3368.25,683.847 3368.25,670.954ZM3359.68,635.966C3359.68,633.539 3358.71,631.211 3356.99,629.495C3355.28,627.778 3352.95,626.814 3350.52,626.814C3350.52,626.814 3350.52,626.814 3350.52,626.814C3348.1,626.814 3345.77,627.778 3344.05,629.495C3342.34,631.211 3341.37,633.539 3341.37,635.966C3341.37,638.833 3341.37,641.996 3341.37,644.863C3341.37,647.29 3342.34,649.618 3344.05,651.334C3345.77,653.05 3348.1,654.015 3350.52,654.015C3350.52,654.015 3350.52,654.015 3350.52,654.015C3352.95,654.015 3355.28,653.05 3356.99,651.334C3358.71,649.618 3359.68,647.29 3359.68,644.863C3359.68,641.996 3359.68,638.833 3359.68,635.966ZM3298.63,635.966C3298.63,633.539 3297.66,631.211 3295.95,629.495C3294.23,627.778 3291.9,626.814 3289.48,626.814C3289.48,626.814 3289.48,626.814 3289.48,626.814C3287.05,626.814 3284.72,627.778 3283.01,629.495C3281.29,631.211 3280.33,633.539 3280.33,635.966C3280.33,638.833 3280.33,641.996 3280.33,644.863C3280.33,647.29 3281.29,649.618 3283.01,651.334C3284.72,653.05 3287.05,654.015 3289.48,654.015C3289.48,654.015 3289.48,654.015 3289.48,654.015C3291.9,654.015 3294.23,653.05 3295.95,651.334C3297.66,649.618 3298.63,647.29 3298.63,644.863C3298.63,641.996 3298.63,638.833 3298.63,635.966Z"
                      style="fill:rgb(var(--accent)); fillRule: nonzero"/>
            </g>
        </g>
    </g>
</svg>
