<?xml version="1.0" encoding="UTF-8" standalone="no"?>
<!DOCTYPE svg PUBLIC "-//W3C//DTD SVG 1.1//EN" "http://www.w3.org/Graphics/SVG/1.1/DTD/svg11.dtd">
<svg width="32" height="32" viewBox="0 0 256 256" version="1.1" xmlns="http://www.w3.org/2000/svg" xmlns:xlink="http://www.w3.org/1999/xlink" xml:space="preserve" style="fill-rule:evenodd;clip-rule:evenodd;stroke-linejoin:round;stroke-miterlimit:2;">
    <g transform="matrix(1,0,0,1,-1064,-1243)">
        <g id="Delete" transform="matrix(1.07986,0,0,1.07986,353.66,-498.962)">
            <rect x="657.81" y="1613.14" width="237.069" height="237.069" style="fill:none;"/>
            <g transform="matrix(0.92605,0,0,0.92605,-327.507,462.063)">
                <path d="M1302,1281C1302,1275.7 1299.89,1270.61 1296.14,1266.86C1292.39,1263.11 1287.3,1261 1282,1261L1102,1261C1096.7,1261 1091.61,1263.11 1087.86,1266.86C1084.11,1270.61 1082,1275.7 1082,1281L1082,1461C1082,1466.3 1084.11,1471.39 1087.86,1475.14C1091.61,1478.89 1096.7,1481 1102,1481L1282,1481C1287.3,1481 1292.39,1478.89 1296.14,1475.14C1299.89,1471.39 1302,1466.3 1302,1461L1302,1281ZM1156.05,1430.09C1153.43,1430.09 1151.13,1429.11 1149.16,1427.14C1147.19,1425.17 1146.2,1422.87 1146.2,1420.24L1146.2,1326.68L1139.48,1326.68L1139.48,1316.83L1170.33,1316.83L1170.33,1311.91L1213.67,1311.91L1213.67,1316.83L1244.53,1316.83L1244.53,1326.68L1237.8,1326.68L1237.8,1420.24C1237.8,1422.87 1236.81,1425.17 1234.84,1427.14C1232.87,1429.11 1230.57,1430.09 1227.95,1430.09L1156.05,1430.09ZM1227.95,1326.68L1156.05,1326.68L1156.05,1420.24L1227.95,1420.24L1227.95,1326.68ZM1173.45,1406.13L1183.3,1406.13L1183.3,1340.63L1173.45,1340.63L1173.45,1406.13ZM1200.7,1406.13L1210.55,1406.13L1210.55,1340.63L1200.7,1340.63L1200.7,1406.13Z"
                      style="fill:rgb(var(--accent)); fillRule: nonzero"/>
            </g>
        </g>
    </g>
</svg>
