<?xml version="1.0" encoding="UTF-8" standalone="no"?>
<!DOCTYPE svg PUBLIC "-//W3C//DTD SVG 1.1//EN" "http://www.w3.org/Graphics/SVG/1.1/DTD/svg11.dtd">
<svg width="40" height="40" viewBox="0 0 256 256" version="1.1" xmlns="http://www.w3.org/2000/svg"
     xmlns:xlink="http://www.w3.org/1999/xlink" xml:space="preserve"
     style="fill-rule:evenodd;clip-rule:evenodd;stroke-linejoin:round;stroke-miterlimit:2;">
    <g transform="matrix(1,0,0,1,0,-2041)">
        <g id="EnterFullscreen" transform="matrix(1.07986,0,0,1.07986,-710.34,299.038)">
            <rect x="657.81" y="1613.14" width="237.069" height="237.069" style="fill:none;"/>
            <g transform="matrix(0.92605,0,0,0.92605,657.81,-276.924)">
                <path
                        d="M238,2079C238,2073.7 235.893,2068.61 232.142,2064.86C228.391,2061.11 223.304,2059 218,2059L38,2059C32.696,2059 27.609,2061.11 23.858,2064.86C20.107,2068.61 18,2073.7 18,2079L18,2259C18,2264.3 20.107,2269.39 23.858,2273.14C27.609,2276.89 32.696,2279 38,2279L218,2279C223.304,2279 228.391,2276.89 232.142,2273.14C235.893,2269.39 238,2264.3 238,2259L238,2079ZM183.063,2231.21L159.474,2231.21C156.178,2231.21 153.502,2233.89 153.502,2237.18C153.502,2240.48 156.178,2243.16 159.474,2243.16L203.454,2243.16L203.454,2199.18C203.454,2195.88 200.778,2193.2 197.482,2193.2C194.186,2193.2 191.51,2195.88 191.51,2199.18L191.51,2222.76L162.668,2193.92C160.337,2191.59 156.552,2191.59 154.222,2193.92C151.891,2196.25 151.891,2200.04 154.222,2202.37L183.063,2231.21ZM64.95,2222.76L64.95,2199.18C64.95,2195.88 62.274,2193.2 58.977,2193.2C55.681,2193.2 53.005,2195.88 53.005,2199.18L53.005,2243.16L96.985,2243.16C100.281,2243.16 102.957,2240.48 102.957,2237.18C102.957,2233.89 100.281,2231.21 96.985,2231.21L73.396,2231.21L102.238,2202.37C104.568,2200.04 104.568,2196.25 102.238,2193.92C99.907,2191.59 96.122,2191.59 93.791,2193.92L64.95,2222.76ZM73.396,2104.65L96.985,2104.65C100.281,2104.65 102.957,2101.97 102.957,2098.68C102.957,2095.38 100.281,2092.71 96.985,2092.71L53.005,2092.71L53.005,2136.69C53.005,2139.98 55.681,2142.66 58.977,2142.66C62.274,2142.66 64.95,2139.98 64.95,2136.69L64.95,2113.1L93.791,2141.94C96.122,2144.27 99.907,2144.27 102.238,2141.94C104.568,2139.61 104.568,2135.82 102.238,2133.49L73.396,2104.65ZM191.51,2113.1L191.51,2136.69C191.51,2139.98 194.186,2142.66 197.482,2142.66C200.778,2142.66 203.454,2139.98 203.454,2136.69L203.454,2092.71L159.474,2092.71C156.178,2092.71 153.502,2095.38 153.502,2098.68C153.502,2101.97 156.178,2104.65 159.474,2104.65L183.063,2104.65L154.222,2133.49C151.891,2135.82 151.891,2139.61 154.222,2141.94C156.552,2144.27 160.337,2144.27 162.668,2141.94L191.51,2113.1Z"
                        style="fill:rgba(var(--foreground), 0.1); fillRule: nonzero"
                />
            </g>
        </g>
    </g>
</svg>
