<?xml version="1.0" encoding="UTF-8" standalone="no"?>
<!DOCTYPE svg PUBLIC "-//W3C//DTD SVG 1.1//EN" "http://www.w3.org/Graphics/SVG/1.1/DTD/svg11.dtd">
<svg width="32" height="32" viewBox="0 0 256 257" version="1.1" xmlns="http://www.w3.org/2000/svg" xmlns:xlink="http://www.w3.org/1999/xlink" xml:space="preserve"
     style="fill-rule:evenodd;clip-rule:evenodd;stroke-linejoin:round;stroke-miterlimit:2;">
    <g transform="matrix(1,0,0,1,-2394,-560)">
        <g id="Enum" transform="matrix(1.07986,0,0,1.07986,1683.66,-1181.73)">
            <rect x="657.81" y="1613.14" width="237.069" height="237.069" style="fill:none;"/>
            <g transform="matrix(0.92605,0,0,0.92605,-1559.15,1094.35)">
                <path d="M2632,598.227C2632,592.923 2629.89,587.836 2626.14,584.085C2622.39,580.334 2617.3,578.227 2612,578.227L2432,578.227C2426.7,578.227 2421.61,580.334 2417.86,584.085C2414.11,587.836 2412,592.923 2412,598.227L2412,778.227C2412,783.531 2414.11,788.618 2417.86,792.369C2421.61,796.12 2426.7,798.227 2432,798.227L2612,798.227C2617.3,798.227 2622.39,796.12 2626.14,792.369C2629.89,788.618 2632,783.531 2632,778.227L2632,598.227ZM2539.7,676.804L2539.7,662.526L2583.11,681.945L2583.11,694.509L2539.7,713.928L2539.7,699.65L2565.98,688.227L2539.7,676.804ZM2478.02,688.227L2504.3,699.65L2504.3,713.928L2460.89,694.509L2460.89,681.945L2504.3,662.526L2504.3,676.804L2478.02,688.227Z"
                      style="fill:rgb(var(--accent)); fillRule: nonzero"/>
            </g>
        </g>
    </g>
</svg>
