<?xml version="1.0" encoding="UTF-8" standalone="no"?>
<!DOCTYPE svg PUBLIC "-//W3C//DTD SVG 1.1//EN" "http://www.w3.org/Graphics/SVG/1.1/DTD/svg11.dtd">
<svg width="32" height="32" viewBox="0 0 256 256" version="1.1" xmlns="http://www.w3.org/2000/svg"
     xmlns:xlink="http://www.w3.org/1999/xlink" xml:space="preserve"
     style="fill-rule:evenodd;clip-rule:evenodd;stroke-linejoin:round;stroke-miterlimit:2;">
    <g transform="matrix(1,0,0,1,-798,-1243)">
        <g id="Execute" transform="matrix(1.07986,0,0,1.07986,87.6599,-498.962)">
            <rect x="657.81" y="1613.14" width="237.069" height="237.069" style="fill:none;"/>
            <g transform="matrix(0.92605,0,0,0.92605,-81.1774,462.063)">
                <path
                        d="M1036,1281C1036,1275.7 1033.89,1270.61 1030.14,1266.86C1026.39,1263.11 1021.3,1261 1016,1261L836,1261C830.696,1261 825.609,1263.11 821.858,1266.86C818.107,1270.61 816,1275.7 816,1281L816,1461C816,1466.3 818.107,1471.39 821.858,1475.14C825.609,1478.89 830.696,1481 836,1481L1016,1481C1021.3,1481 1026.39,1478.89 1030.14,1475.14C1033.89,1471.39 1036,1466.3 1036,1461L1036,1281ZM978.751,1366.71C980.257,1367.62 981.178,1369.24 981.178,1371C981.178,1372.76 980.257,1374.38 978.751,1375.29C961.784,1385.47 919.196,1411.02 901.808,1421.46C900.263,1422.38 898.339,1422.41 896.772,1421.52C895.204,1420.63 894.235,1418.97 894.235,1417.17C894.235,1396.55 894.235,1345.45 894.235,1324.83C894.235,1323.03 895.204,1321.37 896.772,1320.48C898.339,1319.59 900.263,1319.62 901.808,1320.54C919.196,1330.98 961.784,1356.53 978.751,1366.71Z"
                        style="fill:rgb(var(--accent)); fillRule: nonzero"
                />
            </g>
        </g>
    </g>
</svg>
