<?xml version="1.0" encoding="UTF-8" standalone="no"?>
<!DOCTYPE svg PUBLIC "-//W3C//DTD SVG 1.1//EN" "http://www.w3.org/Graphics/SVG/1.1/DTD/svg11.dtd">
<svg width="40" height="40" viewBox="0 0 256 256" version="1.1" xmlns="http://www.w3.org/2000/svg" xmlns:xlink="http://www.w3.org/1999/xlink" xml:space="preserve" style="fill-rule:evenodd;clip-rule:evenodd;stroke-linejoin:round;stroke-miterlimit:2;">
    <g transform="matrix(1,0,0,1,-266,-2041)">
        <g id="ExitFullscreen" transform="matrix(1.07986,0,0,1.07986,-444.34,299.038)">
            <rect x="657.81" y="1613.14" width="237.069" height="237.069" style="fill:none;"/>
            <g transform="matrix(0.92605,0,0,0.92605,411.481,-276.924)">
                <path
                        d="M504,2079C504,2073.7 501.893,2068.61 498.142,2064.86C494.391,2061.11 489.304,2059 484,2059L304,2059C298.696,2059 293.609,2061.11 289.858,2064.86C286.107,2068.61 284,2073.7 284,2079L284,2259C284,2264.3 286.107,2269.39 289.858,2273.14C293.609,2276.89 298.696,2279 304,2279L484,2279C489.304,2279 494.391,2276.89 498.142,2273.14C501.893,2269.39 504,2264.3 504,2259L504,2079ZM358.041,2212.57L358.041,2236.15C358.041,2239.45 360.717,2242.13 364.013,2242.13C367.31,2242.13 369.986,2239.45 369.986,2236.15L369.986,2192.17L326.006,2192.17C322.709,2192.17 320.033,2194.85 320.033,2198.15C320.033,2201.44 322.709,2204.12 326.006,2204.12L349.595,2204.12L320.753,2232.96C318.422,2235.29 318.422,2239.08 320.753,2241.41C323.084,2243.74 326.869,2243.74 329.199,2241.41L358.041,2212.57ZM438.864,2204.12L462.454,2204.12C465.75,2204.12 468.426,2201.44 468.426,2198.15C468.426,2194.85 465.75,2192.17 462.454,2192.17L418.474,2192.17L418.474,2236.15C418.474,2239.45 421.15,2242.13 424.446,2242.13C427.742,2242.13 430.418,2239.45 430.418,2236.15L430.418,2212.57L459.26,2241.41C461.591,2243.74 465.375,2243.74 467.706,2241.41C470.037,2239.08 470.037,2235.29 467.706,2232.96L438.864,2204.12ZM349.595,2131.74L326.006,2131.74C322.709,2131.74 320.033,2134.42 320.033,2137.71C320.033,2141.01 322.709,2143.69 326.006,2143.69L369.986,2143.69L369.986,2099.71C369.986,2096.41 367.31,2093.73 364.013,2093.73C360.717,2093.73 358.041,2096.41 358.041,2099.71L358.041,2123.3L329.199,2094.45C326.869,2092.12 323.084,2092.12 320.753,2094.45C318.422,2096.78 318.422,2100.57 320.753,2102.9L349.595,2131.74ZM430.418,2123.3L430.418,2099.71C430.418,2096.41 427.742,2093.73 424.446,2093.73C421.15,2093.73 418.474,2096.41 418.474,2099.71L418.474,2143.69L462.454,2143.69C465.75,2143.69 468.426,2141.01 468.426,2137.71C468.426,2134.42 465.75,2131.74 462.454,2131.74L438.864,2131.74L467.706,2102.9C470.037,2100.57 470.037,2096.78 467.706,2094.45C465.375,2092.12 461.591,2092.12 459.26,2094.45L430.418,2123.3Z"
                        style="fill:rgba(var(--foreground),  0.1); fillRule: nonzero"
                />
            </g>
        </g>
    </g>
</svg>
