<?xml version="1.0" encoding="UTF-8" standalone="no"?>
<!DOCTYPE svg PUBLIC "-//W3C//DTD SVG 1.1//EN" "http://www.w3.org/Graphics/SVG/1.1/DTD/svg11.dtd">
<svg width="32" height="32" viewBox="0 0 256 257" version="1.1" xmlns="http://www.w3.org/2000/svg" xmlns:xlink="http://www.w3.org/1999/xlink" xml:space="preserve"
     style="fill-rule:evenodd;clip-rule:evenodd;stroke-linejoin:round;stroke-miterlimit:2;">
    <g transform="matrix(1,0,0,1,-2128,-560)">
        <g id="Float" transform="matrix(1.07986,0,0,1.07986,1417.66,-1181.73)">
            <g transform="matrix(0.92605,0,0,0.92605,-466.007,685.811)">
                <path d="M1451.56,1039.38C1451.56,1034.08 1449.45,1028.99 1445.7,1025.24C1441.95,1021.49 1436.87,1019.38 1431.56,1019.38L1251.56,1019.38C1246.26,1019.38 1241.17,1021.49 1237.42,1025.24C1233.67,1028.99 1231.56,1034.08 1231.56,1039.38L1231.56,1219.38C1231.56,1224.69 1233.67,1229.78 1237.42,1233.53C1241.17,1237.28 1246.26,1239.38 1251.56,1239.38L1431.56,1239.38C1436.87,1239.38 1441.95,1237.28 1445.7,1233.53C1449.45,1229.78 1451.56,1224.69 1451.56,1219.38L1451.56,1039.38ZM1334.82,1151.4C1334.82,1149.61 1335.5,1148.03 1336.84,1146.68C1338.19,1145.34 1339.76,1144.66 1341.56,1144.66C1343.36,1144.66 1344.93,1145.34 1346.28,1146.68C1347.63,1148.03 1348.3,1149.61 1348.3,1151.4C1348.3,1153.2 1347.63,1154.77 1346.28,1156.12C1344.93,1157.47 1343.36,1158.14 1341.56,1158.14C1339.76,1158.14 1338.19,1157.47 1336.84,1156.12C1335.5,1154.77 1334.82,1153.2 1334.82,1151.4ZM1280.45,1129.38C1280.45,1124.89 1281.08,1120.86 1282.34,1117.3C1283.6,1113.73 1285.32,1110.72 1287.5,1108.27C1289.69,1105.81 1292.27,1103.92 1295.23,1102.6C1298.2,1101.29 1301.36,1100.63 1304.71,1100.63C1308.07,1100.63 1311.23,1101.29 1314.2,1102.6C1317.16,1103.92 1319.74,1105.81 1321.92,1108.27C1324.11,1110.72 1325.83,1113.73 1327.09,1117.3C1328.35,1120.86 1328.98,1124.89 1328.98,1129.38C1328.98,1133.88 1328.35,1137.91 1327.09,1141.47C1325.83,1145.04 1324.11,1148.05 1321.92,1150.5C1319.74,1152.96 1317.16,1154.85 1314.2,1156.17C1311.23,1157.48 1308.07,1158.14 1304.71,1158.14C1301.36,1158.14 1298.2,1157.48 1295.23,1156.17C1292.27,1154.85 1289.69,1152.96 1287.5,1150.5C1285.32,1148.05 1283.6,1145.04 1282.34,1141.47C1281.08,1137.91 1280.45,1133.88 1280.45,1129.38ZM1354.14,1129.38C1354.14,1124.89 1354.77,1120.86 1356.03,1117.3C1357.29,1113.73 1359.01,1110.72 1361.2,1108.27C1363.38,1105.81 1365.96,1103.92 1368.93,1102.6C1371.89,1101.29 1375.05,1100.63 1378.41,1100.63C1381.76,1100.63 1384.92,1101.29 1387.89,1102.6C1390.85,1103.92 1393.43,1105.81 1395.62,1108.27C1397.8,1110.72 1399.53,1113.73 1400.79,1117.3C1402.04,1120.86 1402.67,1124.89 1402.67,1129.38C1402.67,1133.88 1402.04,1137.91 1400.79,1141.47C1399.53,1145.04 1397.8,1148.05 1395.62,1150.5C1393.43,1152.96 1390.85,1154.85 1387.89,1156.17C1384.92,1157.48 1381.76,1158.14 1378.41,1158.14C1375.05,1158.14 1371.89,1157.48 1368.93,1156.17C1365.96,1154.85 1363.38,1152.96 1361.2,1150.5C1359.01,1148.05 1357.29,1145.04 1356.03,1141.47C1354.77,1137.91 1354.14,1133.88 1354.14,1129.38ZM1315.95,1129.38C1315.95,1126.69 1315.63,1124.34 1315,1122.33C1314.38,1120.32 1313.55,1118.65 1312.53,1117.3C1311.52,1115.95 1310.32,1114.93 1308.94,1114.24C1307.56,1113.55 1306.15,1113.21 1304.71,1113.21C1303.28,1113.21 1301.87,1113.55 1300.49,1114.24C1299.11,1114.93 1297.91,1115.95 1296.9,1117.3C1295.88,1118.65 1295.05,1120.32 1294.42,1122.33C1293.8,1124.34 1293.48,1126.69 1293.48,1129.38C1293.48,1132.08 1293.8,1134.45 1294.42,1136.49C1295.05,1138.52 1295.88,1140.21 1296.9,1141.56C1297.91,1142.91 1299.11,1143.91 1300.49,1144.57C1301.87,1145.23 1303.28,1145.56 1304.71,1145.56C1306.15,1145.56 1307.56,1145.23 1308.94,1144.57C1310.32,1143.91 1311.52,1142.91 1312.53,1141.56C1313.55,1140.21 1314.38,1138.52 1315,1136.49C1315.63,1134.45 1315.95,1132.08 1315.95,1129.38ZM1389.64,1129.38C1389.64,1126.69 1389.33,1124.34 1388.7,1122.33C1388.07,1120.32 1387.24,1118.65 1386.23,1117.3C1385.21,1115.95 1384.01,1114.93 1382.63,1114.24C1381.25,1113.55 1379.85,1113.21 1378.41,1113.21C1376.97,1113.21 1375.56,1113.55 1374.18,1114.24C1372.81,1114.93 1371.61,1115.95 1370.59,1117.3C1369.57,1118.65 1368.75,1120.32 1368.12,1122.33C1367.49,1124.34 1367.17,1126.69 1367.17,1129.38C1367.17,1132.08 1367.49,1134.45 1368.12,1136.49C1368.75,1138.52 1369.57,1140.21 1370.59,1141.56C1371.61,1142.91 1372.81,1143.91 1374.18,1144.57C1375.56,1145.23 1376.97,1145.56 1378.41,1145.56C1379.85,1145.56 1381.25,1145.23 1382.63,1144.57C1384.01,1143.91 1385.21,1142.91 1386.23,1141.56C1387.24,1140.21 1388.07,1138.52 1388.7,1136.49C1389.33,1134.45 1389.64,1132.08 1389.64,1129.38Z"
                      style="fill:rgb(var(--accent)); fillRule: nonzero"/>
            </g>
        </g>
    </g>
</svg>
