<?xml version="1.0" encoding="UTF-8" standalone="no"?>
<!DOCTYPE svg PUBLIC "-//W3C//DTD SVG 1.1//EN" "http://www.w3.org/Graphics/SVG/1.1/DTD/svg11.dtd">
<svg width="100%" height="100%" viewBox="0 0 256 256" version="1.1" xmlns="http://www.w3.org/2000/svg" xmlns:xlink="http://www.w3.org/1999/xlink" xml:space="preserve" style="fill-rule:evenodd;clip-rule:evenodd;stroke-linejoin:round;stroke-miterlimit:2;">
    <g transform="matrix(1,0,0,1,-1330,-711)">
        <g id="Installation" transform="matrix(1.07986,0,0,1.07986,619.66,-1030.96)">
            <rect x="657.81" y="1613.14" width="237.069" height="237.069" style="fill:none;"/>
            <g transform="matrix(0.92605,0,0,0.92605,-573.836,954.722)">
                <path d="M1380.79,793.49L1380.79,819.24C1380.79,821.173 1382.36,822.74 1384.29,822.74L1422.78,822.74L1422.78,839.789L1384.29,839.789C1382.36,839.789 1380.79,841.356 1380.79,843.289L1380.79,869.193L1363.23,869.193C1361.02,869.193 1359.23,870.983 1359.23,873.193L1359.23,915.313C1359.23,917.523 1361.02,919.313 1363.23,919.313L1405.35,919.313C1407.56,919.313 1409.35,917.523 1409.35,915.313L1409.35,873.193C1409.35,870.983 1407.56,869.193 1405.35,869.193L1387.79,869.193L1387.79,846.789L1422.78,846.789L1422.78,863.391C1422.78,865.6 1424.57,867.391 1426.78,867.391L1454.5,867.391L1454.5,879.056L1452.09,879.056C1449.88,879.056 1448.09,880.848 1448.09,883.059L1448.09,884.877C1448.09,885.143 1447.98,885.397 1447.8,885.585C1447.61,885.772 1447.35,885.878 1447.09,885.878C1446.7,885.878 1446.24,885.878 1445.79,885.878C1444.69,885.877 1443.79,886.773 1443.79,887.877C1443.79,895.761 1443.79,924.641 1443.79,932.525C1443.79,933.056 1444,933.564 1444.38,933.939C1444.75,934.314 1445.26,934.525 1445.79,934.525C1451,934.525 1464.95,934.525 1470.16,934.525C1470.69,934.525 1471.2,934.314 1471.57,933.939C1471.95,933.564 1472.16,933.056 1472.16,932.525C1472.16,924.641 1472.16,895.761 1472.16,887.877C1472.16,886.773 1471.27,885.877 1470.16,885.878C1469.71,885.878 1469.25,885.878 1468.86,885.878C1468.6,885.878 1468.34,885.772 1468.16,885.585C1467.97,885.397 1467.86,885.143 1467.86,884.877C1467.86,884.371 1467.86,883.719 1467.86,883.035C1467.86,880.838 1466.08,879.056 1463.88,879.056L1461.5,879.056L1461.5,867.391L1489.22,867.391C1491.43,867.391 1493.22,865.6 1493.22,863.391L1493.22,835.286L1507.22,835.286L1507.22,853.232C1507.22,855.441 1509.01,857.232 1511.22,857.232L1553.34,857.232C1555.55,857.232 1557.34,855.441 1557.34,853.232L1557.34,811.111C1557.34,808.902 1555.55,807.111 1553.34,807.111L1511.22,807.111C1509.01,807.111 1507.22,808.902 1507.22,811.111L1507.22,828.286L1493.22,828.286L1493.22,800.952C1493.22,798.743 1491.43,796.952 1489.22,796.952L1426.78,796.952C1424.57,796.952 1422.78,798.743 1422.78,800.952L1422.78,815.74L1387.79,815.74L1387.79,793.49L1405.35,793.49C1407.56,793.49 1409.35,791.7 1409.35,789.49L1409.35,747.37C1409.35,745.16 1407.56,743.37 1405.35,743.37L1363.23,743.37C1361.02,743.37 1359.23,745.16 1359.23,747.37L1359.23,789.49C1359.23,791.7 1361.02,793.49 1363.23,793.49L1380.79,793.49Z"
                      style="fill:rgb(var(--background));"/>
            </g>
        </g>
    </g>
</svg>
