<?xml version="1.0" encoding="UTF-8" standalone="no"?>
<!DOCTYPE svg PUBLIC "-//W3C//DTD SVG 1.1//EN" "http://www.w3.org/Graphics/SVG/1.1/DTD/svg11.dtd">
<svg width="100%" height="100%" viewBox="0 0 256 257" version="1.1" xmlns="http://www.w3.org/2000/svg" xmlns:xlink="http://www.w3.org/1999/xlink" xml:space="preserve" style="fill-rule:evenodd;clip-rule:evenodd;stroke-linejoin:round;stroke-miterlimit:2;">
    <g transform="matrix(1,0,0,1,-572,-2058)">
        <g id="Messages" transform="matrix(1.07986,0,0,1.07986,-138.34,316.265)">
            <rect x="657.81" y="1613.14" width="237.069" height="237.069" style="fill:none;"/>
            <g transform="matrix(8.33445,0,0,8.33445,676.331,1643.04)">
                <path d="M20,2L4,2C2.9,2 2.01,2.9 2.01,4L2,22L6,18L20,18C21.1,18 22,17.1 22,16L22,4C22,2.9 21.1,2 20,2ZM9,11L7,11L7,9L9,9L9,11ZM13,11L11,11L11,9L13,9L13,11ZM17,11L15,11L15,9L17,9L17,11Z"
                      style="fill:rgb(var(--background));fill-rule:nonzero;"/>
            </g>
        </g>
    </g>
</svg>
