<?xml version="1.0" encoding="UTF-8" standalone="no"?>
<!DOCTYPE svg PUBLIC "-//W3C//DTD SVG 1.1//EN" "http://www.w3.org/Graphics/SVG/1.1/DTD/svg11.dtd">
<svg width="32" height="32" viewBox="0 0 256 256" version="1.1" xmlns="http://www.w3.org/2000/svg" xmlns:xlink="http://www.w3.org/1999/xlink" style="fill-rule:evenodd;clip-rule:evenodd;stroke-linejoin:round;stroke-miterlimit:2;">
    <g transform="matrix(1,0,0,1,-1862,-1243)">
        <g id="Password" transform="matrix(1.07986,0,0,1.07986,1151.66,-498.962)">
            <rect x="657.81" y="1613.14" width="237.069" height="237.069" style="fill:none;"/>
            <g transform="matrix(0.92605,0,0,0.92605,-1066.49,462.063)">
                <path d="M2100,1281C2100,1275.7 2097.89,1270.61 2094.14,1266.86C2090.39,1263.11 2085.3,1261 2080,1261L1900,1261C1894.7,1261 1889.61,1263.11 1885.86,1266.86C1882.11,1270.61 1880,1275.7 1880,1281L1880,1461C1880,1466.3 1882.11,1471.39 1885.86,1475.14C1889.61,1478.89 1894.7,1481 1900,1481L2080,1481C2085.3,1481 2090.39,1478.89 2094.14,1475.14C2097.89,1471.39 2100,1466.3 2100,1461L2100,1281ZM1927.96,1408.3L1927.96,1398.84L2052.04,1398.84L2052.04,1408.3L1927.96,1408.3ZM1933.86,1368.91L1927.65,1365.49L1933.86,1354.95L1921.76,1354.95L1921.76,1347.97L1933.86,1347.97L1927.65,1337.42L1933.86,1334.01L1939.75,1344.4L1945.64,1334.01L1951.85,1337.42L1945.64,1347.97L1957.74,1347.97L1957.74,1354.95L1945.64,1354.95L1951.85,1365.49L1945.64,1368.91L1939.75,1358.52L1933.86,1368.91ZM1984.11,1368.91L1977.9,1365.18L1984.11,1354.64L1972.01,1354.64L1972.01,1347.66L1984.11,1347.66L1977.9,1337.11L1984.11,1333.7L1990,1344.09L1995.89,1333.7L2002.1,1337.11L1995.89,1347.66L2007.99,1347.66L2007.99,1354.64L1995.89,1354.64L2002.1,1365.18L1995.89,1368.91L1990,1358.52L1984.11,1368.91ZM2034.36,1368.91L2028.15,1365.18L2034.36,1354.64L2022.26,1354.64L2022.26,1347.66L2034.36,1347.66L2028.15,1337.11L2034.36,1333.7L2040.25,1344.09L2046.14,1333.7L2052.35,1337.11L2046.14,1347.66L2058.24,1347.66L2058.24,1354.64L2046.14,1354.64L2052.35,1365.18L2046.14,1368.91L2040.25,1358.52L2034.36,1368.91Z"
                      style="fill:rgb(var(--accent)); fillRule: nonzero"/>
            </g>
        </g>
    </g>
</svg>
