<?xml version="1.0" encoding="UTF-8" standalone="no"?>
<!DOCTYPE svg PUBLIC "-//W3C//DTD SVG 1.1//EN" "http://www.w3.org/Graphics/SVG/1.1/DTD/svg11.dtd">
<svg width="32" height="32" viewBox="0 0 256 257" version="1.1" xmlns="http://www.w3.org/2000/svg" xmlns:xlink="http://www.w3.org/1999/xlink" xml:space="preserve"
     style="fill-rule:evenodd;clip-rule:evenodd;stroke-linejoin:round;stroke-miterlimit:2;">
    <g transform="matrix(1,0,0,1,-3458,-560)">
        <g id="Read" transform="matrix(1.07986,0,0,1.07986,2747.66,-1181.73)">
            <rect x="657.81" y="1613.14" width="237.069" height="237.069" style="fill:none;"/>
            <g transform="matrix(0.92605,0,0,0.92605,-2544.47,1094.35)">
                <path d="M3696,598.227C3696,592.923 3693.89,587.836 3690.14,584.085C3686.39,580.334 3681.3,578.227 3676,578.227L3496,578.227C3490.7,578.227 3485.61,580.334 3481.86,584.085C3478.11,587.836 3476,592.923 3476,598.227L3476,778.227C3476,783.531 3478.11,788.618 3481.86,792.369C3485.61,796.12 3490.7,798.227 3496,798.227L3676,798.227C3681.3,798.227 3686.39,796.12 3690.14,792.369C3693.89,788.618 3696,783.531 3696,778.227L3696,598.227ZM3631.16,643.026C3629.74,644.448 3627.44,644.498 3625.96,643.14C3615.31,633.65 3601.34,627.875 3585.96,627.875C3552.62,627.875 3525.68,654.882 3525.68,688.227C3525.68,721.572 3552.62,748.579 3585.96,748.579C3612.3,748.579 3634.53,731.733 3642.78,708.242C3643.15,707.107 3642.95,705.863 3642.25,704.897C3641.55,703.931 3640.43,703.359 3639.24,703.359C3636.54,703.315 3633.33,703.315 3631.15,703.315C3629.61,703.318 3628.22,704.258 3627.65,705.689C3620.86,722.02 3604.75,733.491 3585.96,733.491C3560.99,733.491 3540.7,713.198 3540.7,688.227C3540.7,663.256 3560.99,642.963 3585.96,642.963C3597.04,642.963 3607.05,647.034 3614.85,653.663C3615.63,654.346 3616.09,655.32 3616.12,656.353C3616.16,657.387 3615.76,658.388 3615.03,659.119C3611.41,662.783 3604.87,669.322 3599.95,674.244C3598.87,675.322 3598.54,676.945 3599.13,678.354C3599.71,679.764 3601.09,680.683 3602.61,680.683C3614.36,680.683 3634.28,680.683 3642.54,680.683C3644.63,680.683 3646.32,678.994 3646.32,676.911C3646.32,668.644 3646.32,648.732 3646.32,636.981C3646.32,635.455 3645.4,634.08 3643.99,633.496C3642.58,632.912 3640.95,633.235 3639.88,634.314C3636.86,637.328 3633.44,640.748 3631.16,643.026Z"
                      style="fill:rgb(var(--accent)); fillRule: nonzero"/>
            </g>
        </g>
    </g>
</svg>
