<?xml version="1.0" encoding="UTF-8" standalone="no"?>
<!DOCTYPE svg PUBLIC "-//W3C//DTD SVG 1.1//EN" "http://www.w3.org/Graphics/SVG/1.1/DTD/svg11.dtd">
<svg width="32" height="32" viewBox="0 0 256 257" version="1.1" xmlns="http://www.w3.org/2000/svg" xmlns:xlink="http://www.w3.org/1999/xlink" xml:space="preserve"
     style="fill-rule:evenodd;clip-rule:evenodd;stroke-linejoin:round;stroke-miterlimit:2;">
    <g transform="matrix(1,0,0,1,-3458,-560)">
        <g id="Signal" transform="matrix(1.07986,0,0,1.07986,2747.66,-1181.73)">
            <rect x="657.81" y="1613.14" width="237.069" height="237.069" style="fill:none;"/>
            <g transform="matrix(0.92605,0,0,0.92605,-2544.47,1094.35)">
                <path d="M3696,598.227C3696,592.923 3693.89,587.836 3690.14,584.085C3686.39,580.334 3681.3,578.227 3676,578.227L3496,578.227C3490.7,578.227 3485.61,580.334 3481.86,584.085C3478.11,587.836 3476,592.923 3476,598.227L3476,778.227C3476,783.531 3478.11,788.618 3481.86,792.369C3485.61,796.12 3490.7,798.227 3496,798.227L3676,798.227C3681.3,798.227 3686.39,796.12 3690.14,792.369C3693.89,788.618 3696,783.531 3696,778.227L3696,598.227ZM3568.8,632.996C3569.21,631.679 3570.43,630.783 3571.81,630.783C3578.41,630.783 3597.4,630.783 3605.98,630.783C3606.98,630.783 3607.93,631.26 3608.52,632.07C3609.12,632.879 3609.3,633.924 3609,634.883C3606.13,644.071 3599.35,665.854 3597.96,670.324C3597.9,670.514 3597.93,670.72 3598.05,670.88C3598.17,671.04 3598.36,671.135 3598.55,671.135C3602.3,671.135 3617.53,671.135 3626.5,671.135C3627.73,671.135 3628.84,671.841 3629.37,672.948C3629.89,674.056 3629.73,675.367 3628.96,676.317C3617.19,690.722 3583.86,731.521 3567.26,751.84C3566.31,753.003 3564.67,753.34 3563.34,752.647C3562.01,751.953 3561.35,750.42 3561.75,748.975C3566.68,731.497 3574.43,704.013 3575.85,698.982C3575.9,698.791 3575.87,698.586 3575.74,698.428C3575.63,698.27 3575.44,698.178 3575.24,698.178C3571.91,698.178 3559.47,698.178 3552.81,698.178C3551.81,698.178 3550.87,697.702 3550.27,696.896C3549.68,696.091 3549.51,695.051 3549.8,694.096C3553.76,681.368 3565.79,642.675 3568.8,632.996Z"
                      style="fill:rgb(var(--accent)); fillRule: nonzero"/>
            </g>
        </g>
    </g>
</svg>
