<?xml version="1.0" encoding="UTF-8" standalone="no"?>
<!DOCTYPE svg PUBLIC "-//W3C//DTD SVG 1.1//EN" "http://www.w3.org/Graphics/SVG/1.1/DTD/svg11.dtd">
<svg width="32" height="32" viewBox="0 0 256 257" version="1.1" xmlns="http://www.w3.org/2000/svg" xmlns:xlink="http://www.w3.org/1999/xlink" xml:space="preserve"
     style="fill-rule:evenodd;clip-rule:evenodd;stroke-linejoin:round;stroke-miterlimit:2;">
    <g transform="matrix(1,0,0,1,-2926,-560)">
        <g id="Time" transform="matrix(1.07986,0,0,1.07986,2215.66,-1181.73)">
            <rect x="657.81" y="1613.14" width="237.069" height="237.069" style="fill:none;"/>
            <g transform="matrix(0.92605,0,0,0.92605,-2051.81,1094.35)">
                <path d="M3164,598.227C3164,592.923 3161.89,587.836 3158.14,584.085C3154.39,580.334 3149.3,578.227 3144,578.227L2964,578.227C2958.7,578.227 2953.61,580.334 2949.86,584.085C2946.11,587.836 2944,592.923 2944,598.227L2944,778.227C2944,783.531 2946.11,788.618 2949.86,792.369C2953.61,796.12 2958.7,798.227 2964,798.227L3144,798.227C3149.3,798.227 3154.39,796.12 3158.14,792.369C3161.89,788.618 3164,783.531 3164,778.227L3164,598.227ZM3054,627.116C3087.73,627.116 3115.11,654.499 3115.11,688.227C3115.11,721.955 3087.73,749.338 3054,749.338C3020.27,749.338 2992.89,721.955 2992.89,688.227C2992.89,654.499 3020.27,627.116 3054,627.116ZM3045.64,651.757L3045.64,693.526C3045.64,696.063 3046.99,698.409 3049.18,699.688C3051.37,700.968 3054.07,700.989 3056.28,699.743L3077.42,687.828C3080.85,685.894 3082.06,681.538 3080.13,678.106C3078.2,674.675 3073.84,673.46 3070.41,675.394L3059.91,681.31C3059.91,681.31 3059.91,651.757 3059.91,651.757C3059.91,647.818 3056.72,644.62 3052.78,644.62C3048.84,644.62 3045.64,647.818 3045.64,651.757Z"
                      style="fill:rgb(var(--accent)); fillRule: nonzero"/>
            </g>
        </g>
    </g>
</svg>
