<?xml version="1.0" encoding="UTF-8" standalone="no"?>
<!DOCTYPE svg PUBLIC "-//W3C//DTD SVG 1.1//EN" "http://www.w3.org/Graphics/SVG/1.1/DTD/svg11.dtd">
<svg width="100%" height="100%" viewBox="0 0 256 256" version="1.1" xmlns="http://www.w3.org/2000/svg" xmlns:xlink="http://www.w3.org/1999/xlink" xml:space="preserve" style="fill-rule:evenodd;clip-rule:evenodd;stroke-linejoin:round;stroke-miterlimit:2;">
    <g transform="matrix(1,0,0,1,-1862,-445)">
        <g id="UserManagement" transform="matrix(1.07986,0,0,1.07986,1151.66,-1296.96)">
            <rect x="657.81" y="1613.14" width="237.069" height="237.069" style="fill:none;"/>
            <g transform="matrix(0.435144,0,0,0.435144,664.947,1620.32)">
                <path d="M414.744,368.006C410.39,354.947 402.505,342.007 390.877,334.338C368.491,319.484 342.407,311.664 317.192,303.183C311.108,301.05 304.928,298.788 299.372,295.482C294.403,292.529 292.545,286.512 291.393,281.202C290.886,278.386 290.569,275.524 290.412,272.683C308.694,247.67 320.825,206.854 320.825,173.383C320.825,121.143 291.309,106.587 254.899,106.587C218.491,106.587 188.977,121.128 188.977,173.363C188.977,208.033 201.983,250.567 221.372,275.275C221.191,277.222 220.962,279.177 220.612,281.117C219.453,286.42 217.594,292.366 212.637,295.311C207.069,298.619 200.888,300.71 194.805,302.843C169.59,311.332 143.508,318.808 121.128,333.67C109.492,341.331 101.608,354.947 97.261,368.006C92.781,381.557 90.95,398.5 91.226,411.5L420.771,411.5C421.053,398.5 419.219,381.556 414.744,368.006ZM112.066,319.819C133.318,305.705 156.915,297.968 179.736,290.437C183.015,289.359 186.29,288.3 189.549,287.198L190.217,286.977C195.039,285.288 199.61,283.693 203.351,281.632C203.52,281.238 203.762,280.583 204.051,279.497C185.263,252.069 172.497,209.677 172.497,173.361C172.497,142.554 182.179,119.732 200.438,105.835C192.544,101.844 183.022,100.308 172.775,100.308C145.468,100.308 123.333,111.218 123.333,150.39C123.333,176.397 133.088,208.296 147.629,226.82C147.494,228.284 147.321,229.751 147.058,231.208C146.191,235.187 144.797,239.645 141.077,241.854C136.903,244.332 132.267,245.905 127.705,247.503C108.793,253.868 89.233,259.478 72.447,270.624C63.72,276.369 57.808,286.337 54.547,296.13C51.188,306.293 49.814,320.501 50.021,328.501L101.596,328.501C104.868,324.5 108.354,322.258 112.066,319.819ZM457.457,296.129C454.194,286.336 448.279,276.75 439.557,271.004C422.767,259.859 403.205,254.058 384.295,247.697C379.732,246.099 375.098,244.43 370.929,241.951C367.203,239.738 365.808,235.236 364.947,231.253C364.565,229.145 364.328,227.003 364.211,224.875C377.923,206.114 387.02,175.506 387.02,150.404C387.02,111.224 364.883,100.307 337.577,100.307C327.192,100.307 317.568,101.901 309.61,106.013C327.715,119.926 337.307,142.697 337.307,173.379C337.307,208.737 325.446,249.451 307.412,277.052C307.461,277.365 307.509,277.671 307.565,277.977C308.04,280.118 308.429,281.236 308.671,281.791C312.626,283.996 317.358,285.726 322.644,287.585L330.563,290.224C353.975,297.997 378.184,305.946 399.991,320.414C403.515,322.739 406.843,324.499 409.962,328.499L461.981,328.499C462.189,320.5 460.813,306.292 457.457,296.129Z"
                      style="fill:rgb(var(--background));fill-rule:nonzero;"/>
            </g>
        </g>
    </g>
</svg>
