<?xml version="1.0" encoding="UTF-8" standalone="no"?>
<!DOCTYPE svg PUBLIC "-//W3C//DTD SVG 1.1//EN" "http://www.w3.org/Graphics/SVG/1.1/DTD/svg11.dtd">
<svg width="100%" height="100%" viewBox="0 0 256 256" version="1.1" xmlns="http://www.w3.org/2000/svg" xmlns:xlink="http://www.w3.org/1999/xlink" xml:space="preserve" style="fill-rule:evenodd;clip-rule:evenodd;stroke-linejoin:round;stroke-miterlimit:2;">
    <g transform="matrix(1,0,0,1,-1596,-445)">
        <g id="WifiConfig" transform="matrix(1.07986,0,0,1.07986,885.66,-1296.96)">
            <rect x="657.81" y="1613.14" width="237.069" height="237.069" style="fill:none;"/>
            <g id="Layer-1" transform="matrix(0.266721,0,0,0.266721,679.563,1588.92)">
                <path id="path4391" d="M362.467,399.374C282.015,399.677 201.697,429.799 140.154,489.655L196.06,544.936C288.317,455.326 436.806,454.795 529.716,543.78L585.498,487.967C523.487,428.577 442.918,399.071 362.467,399.374L362.467,399.374ZM196.06,544.936L195.935,545.03L196.06,544.936Z"
                      style="fill:rgb(var(--background));fill-rule:nonzero;"/>
                <path id="path4395" d="M362.373,281.374C251.428,281.792 140.649,323.331 55.779,405.874L111.248,460.718C250.189,326.162 473.51,325.479 613.279,459.343L669.935,403.561C584.421,321.66 473.318,280.956 362.373,281.374ZM111.248,460.718L110.685,461.249L111.248,460.718Z"
                      style="fill:rgb(var(--background));fill-rule:nonzero;"/>
                <path id="path4381" d="M362.342,516.874C312.254,517.063 262.22,535.827 223.904,573.093L277.342,625.905C324.523,580.084 400.453,579.837 447.967,625.343L501.186,572.03C462.579,535.055 412.43,516.685 362.342,516.874L362.342,516.874ZM277.342,625.905L277.279,625.968L277.342,625.905Z"
                      style="fill:rgb(var(--background));fill-rule:nonzero;"/>
                <g id="path4411" transform="matrix(1,0,0,1,-473.545,131.706)">
                    <path d="M780.992,634.37C766.277,619.654 758.001,599.674 758.001,578.863C758.001,535.8 793.437,500.363 836.501,500.363C879.565,500.363 915.001,535.8 915.001,578.863C915.001,621.927 879.565,657.363 836.501,657.363C815.801,657.363 795.919,649.176 781.222,634.599L836.5,578.862L780.992,634.37Z"
                          style="fill:rgb(var(--background));fill-rule:nonzero;"/>
                </g>
            </g>
        </g>
    </g>
</svg>
