<?xml version="1.0" encoding="UTF-8" standalone="no"?>
<!DOCTYPE svg PUBLIC "-//W3C//DTD SVG 1.1//EN" "http://www.w3.org/Graphics/SVG/1.1/DTD/svg11.dtd">
<svg width="32" height="32" viewBox="0 0 256 257" version="1.1" xmlns="http://www.w3.org/2000/svg" xmlns:xlink="http://www.w3.org/1999/xlink" xml:space="preserve"
     style="fill-rule:evenodd;clip-rule:evenodd;stroke-linejoin:round;stroke-miterlimit:2;">
    <g transform="matrix(1,0,0,1,-3724,-560)">
        <g id="Write" transform="matrix(1.07986,0,0,1.07986,3013.66,-1181.73)">
            <rect x="657.81" y="1613.14" width="237.069" height="237.069" style="fill:none;"/>
            <g transform="matrix(0.92605,0,0,0.92605,-2790.8,1094.35)">
                <path d="M3962,598.227C3962,592.923 3959.89,587.836 3956.14,584.085C3952.39,580.334 3947.3,578.227 3942,578.227L3762,578.227C3756.7,578.227 3751.61,580.334 3747.86,584.085C3744.11,587.836 3742,592.923 3742,598.227L3742,778.227C3742,783.531 3744.11,788.618 3747.86,792.369C3751.61,796.12 3756.7,798.227 3762,798.227L3942,798.227C3947.3,798.227 3952.39,796.12 3956.14,792.369C3959.89,788.618 3962,783.531 3962,778.227L3962,598.227ZM3793.18,722.179C3792.61,722.742 3792.3,723.505 3792.3,724.3C3792.3,728.071 3792.3,739.458 3792.3,744.931C3792.3,746.588 3793.64,747.931 3795.3,747.931L3815.93,747.931C3816.72,747.931 3817.49,747.615 3818.05,747.052C3825.44,739.662 3877.23,687.867 3888.41,676.693C3889.58,675.521 3889.58,673.622 3888.41,672.45C3883.71,667.753 3872.47,656.517 3867.78,651.82C3866.61,650.648 3864.71,650.648 3863.53,651.82C3852.36,662.993 3800.57,714.788 3793.18,722.179ZM3909.76,655.336C3912.35,652.75 3912.35,648.571 3909.76,645.984L3894.24,630.463C3891.66,627.876 3887.48,627.876 3884.89,630.463C3884.89,630.463 3878.35,637 3874.87,640.48C3873.7,641.652 3873.7,643.551 3874.87,644.723C3879.57,649.42 3890.81,660.656 3895.5,665.353C3896.68,666.525 3898.58,666.525 3899.75,665.353C3903.23,661.874 3909.76,655.336 3909.76,655.336Z"
                      style="fill:rgb(var(--accent)); fillRule: nonzero"/>
            </g>
        </g>
    </g>
</svg>
