<?xml version="1.0" encoding="UTF-8" standalone="no"?><!DOCTYPE svg PUBLIC "-//W3C//DTD SVG 1.1//EN" "http://www.w3.org/Graphics/SVG/1.1/DTD/svg11.dtd"><svg width="100%" height="100%" viewBox="0 0 560 500" version="1.1" xmlns="http://www.w3.org/2000/svg" xmlns:xlink="http://www.w3.org/1999/xlink" xml:space="preserve" xmlns:serif="http://www.serif.com/" style="fill-rule:evenodd;clip-rule:evenodd;stroke-linejoin:round;stroke-miterlimit:1.5;"><rect id="Dashboard" x="-0" y="0" width="560" height="500" style="fill:none;"/><g id="Arrows"><path d="M227.443,244l12,6l-12,6l-0,-12Z"/><path d="M130,250l99.843,0" style="fill:none;stroke:#000;stroke-width:4px;stroke-dasharray:4,4;"/><path d="M286,322l-6,-12l-6,12l12,-0Z"/><path d="M286,358l-6,12l-6,-12l12,0Z"/><path d="M280,319.6l0,40.8" style="fill:none;stroke:#000;stroke-width:4px;stroke-dasharray:4,4;"/><path d="M418,244l12,6l-12,6l0,-12Z"/><path d="M318.766,250l101.634,0" style="fill:none;stroke:#000;stroke-width:4px;stroke-dasharray:4,4;"/><path d="M286,178l-6,12l-6,-12l12,0Z"/><path d="M280,130l0,50.4" style="fill:none;stroke:#000;stroke-width:4px;stroke-dasharray:4,4;"/></g><g id="Grid-Generator-Info" serif:id="Grid/Generator Info"><path d="M130,190l-120,0l-0,120l99.587,0c11.274,-0 20.413,-9.139 20.413,-20.413l-0,-99.587Z" style="fill-opacity:0.1;stroke:#000;stroke-width:1px;"/><g id="Grid-Generator-Icon" serif:id="Grid/Generator Icon"><path id="Generator-Icon" serif:id="Generator Icon" d="M77.982,288.041c-0.103,0.103 -0.155,0.258 -0.103,0.413c0.052,0.155 0.155,0.258 0.258,0.31l2.118,0.723l-1.498,2.944c-0.103,0.207 -0.052,0.414 0.155,0.517c0.155,0.103 0.413,0.103 0.568,-0.052l4.287,-4.287c0.104,-0.103 0.155,-0.258 0.104,-0.413c-0.052,-0.155 -0.155,-0.258 -0.259,-0.31l-2.169,-0.62l1.498,-2.944c0.103,-0.207 0.052,-0.413 -0.155,-0.517c-0.155,-0.103 -0.413,-0.103 -0.568,0.052l-2.273,2.273l-1.963,1.911Zm10.951,7.335l-0,2.324l-2.325,0l0,-2.324m-10.124,-0c0,1.291 -1.033,2.324 -2.324,2.324c-1.291,0 -2.324,-1.033 -2.324,-2.324c-0,-1.292 1.033,-2.325 2.324,-2.325c1.291,0 2.324,1.033 2.324,2.325Zm9.091,-14.05c0,-3.047 2.48,-5.527 5.579,-5.527l1.446,0l-0,2.893l-1.446,-0c-1.447,-0 -2.635,1.188 -2.635,2.634l-2.944,0Zm-13.791,14.05l-2.686,-0l-0,-14.05l23.45,0l0,14.05l-16.064,-0" style="fill:none;fill-rule:nonzero;stroke:#000;stroke-width:1.5px;stroke-linecap:round;stroke-miterlimit:10;"/><path id="Grid-Icon" serif:id="Grid Icon" d="M62.612,254.194l-0,2.243m-18.005,-2.243l0,2.243m16.352,-2.243l-4.841,4.604m-9.858,-4.604l4.841,4.604l4.84,-0l-6.493,8.323l8.264,0l-10.094,8.678m-5.018,-19.421l-0,-2.244l21.901,0l-0,2.244m-10.862,-8.678l5.962,28.04l-11.983,0l6.021,-28.04Z" style="fill:none;fill-rule:nonzero;stroke:#000;stroke-width:1.5px;stroke-linecap:round;stroke-miterlimit:10;"/><path d="M46.539,293.761l42.122,-42.122" style="fill:none;stroke:#000;stroke-width:1.5px;stroke-linecap:round;"/></g><path id="Grid-Generator-Power-Unit" serif:id="Grid/Generator Power Unit" d="M94.133,210.92l1.44,0l-0,7.808l3.264,-3.28l2,0l-3.536,3.44l3.84,4.128l-2.048,0l-3.52,-3.936l-0,3.936l-1.44,0l-0,-12.096Z" style="fill-rule:nonzero;"/><path d="M101.365,211.688l1.6,0l2.496,9.056l0.032,0l2.672,-9.056l1.76,0l2.672,9.056l0.032,0l2.496,-9.056l1.6,0l-3.296,11.328l-1.616,0l-2.752,-9.248l-0.032,0l-2.736,9.248l-1.616,0l-3.312,-11.328Z" style="fill-rule:nonzero;"/></g><g id="Consumer-Info" serif:id="Consumer Info"><path d="M550,190l-120,-0l0,120l99.587,-0c11.274,-0 20.413,-9.139 20.413,-20.413l0,-99.587Z" style="fill-opacity:0.1;stroke:#000;stroke-width:1px;"/><path id="Consumer-Icon" serif:id="Consumer Icon" d="M489.131,278.331l11.966,-0m-6.029,-5.381l-0,14.286m6.029,0l-11.966,0l-0,-14.286l11.966,0l0,14.286Zm11.503,-14.471l-25.046,-21.8l-24.954,21.8l6.215,-0l0,22.263l37.57,0l-0,-22.263l6.215,-0Zm-28.85,22.171l-9.462,-0l0,-22.357l9.462,0l0,22.357Z" style="fill:none;fill-rule:nonzero;stroke:#000;stroke-width:1.5px;stroke-linecap:round;stroke-miterlimit:10;"/><path id="Consumer-Power-Unit" serif:id="Consumer Power Unit" d="M514.133,210.92l1.44,0l-0,7.808l3.264,-3.28l2,0l-3.536,3.44l3.84,4.128l-2.048,0l-3.52,-3.936l-0,3.936l-1.44,0l-0,-12.096Z" style="fill-rule:nonzero;"/><path d="M521.365,211.688l1.6,0l2.496,9.056l0.032,0l2.672,-9.056l1.76,0l2.672,9.056l0.032,0l2.496,-9.056l1.6,0l-3.296,11.328l-1.616,0l-2.752,-9.248l-0.032,0l-2.736,9.248l-1.616,0l-3.312,-11.328Z" style="fill-rule:nonzero;"/></g><g id="Battery-Info" serif:id="Battery Info"><path d="M340,370l-120,0l-0,120l99.587,0c11.274,-0 20.413,-9.139 20.413,-20.413l-0,-99.587Z" style="fill-opacity:0.1;stroke:#000;stroke-width:1px;"/><g id="Battery-Icon" serif:id="Battery Icon"><path d="M266.448,480l16.227,0c3.024,-0.07 5.474,-2.577 5.474,-5.602c-0,-0.051 -0.001,-0.102 -0.003,-0.153m-21.698,-39.717l0,45.472l16.227,0c3.024,-0.07 5.474,-2.577 5.474,-5.602c-0,-0.051 -0.001,-0.102 -0.003,-0.153l0,-39.717l-21.698,0Zm5.472,0l0,-4.528l10.849,0l0,4.528" style="fill:none;fill-rule:nonzero;stroke:#000;stroke-width:1.5px;stroke-miterlimit:2;"/></g><path id="Battery-Charge-Unit" serif:id="Battery Charge Unit" d="M311.755,415.792l-0.96,-0.496l7.12,-11.84l0.96,0.496l-7.12,11.84Zm-3.168,-9.28c-0,-0.394 0.074,-0.762 0.224,-1.104c0.149,-0.341 0.352,-0.64 0.608,-0.896c0.256,-0.256 0.554,-0.458 0.896,-0.608c0.341,-0.149 0.709,-0.224 1.104,-0.224c0.394,0 0.762,0.075 1.104,0.224c0.341,0.15 0.64,0.352 0.896,0.608c0.256,0.256 0.458,0.555 0.608,0.896c0.149,0.342 0.224,0.71 0.224,1.104c-0,0.395 -0.075,0.763 -0.224,1.104c-0.15,0.342 -0.352,0.64 -0.608,0.896c-0.256,0.256 -0.555,0.459 -0.896,0.608c-0.342,0.15 -0.71,0.224 -1.104,0.224c-0.395,0 -0.763,-0.074 -1.104,-0.224c-0.342,-0.149 -0.64,-0.352 -0.896,-0.608c-0.256,-0.256 -0.459,-0.554 -0.608,-0.896c-0.15,-0.341 -0.224,-0.709 -0.224,-1.104Zm1.248,0c-0,0.448 0.152,0.824 0.456,1.128c0.304,0.304 0.68,0.456 1.128,0.456c0.448,0 0.824,-0.152 1.128,-0.456c0.304,-0.304 0.456,-0.68 0.456,-1.128c-0,-0.448 -0.152,-0.824 -0.456,-1.128c-0.304,-0.304 -0.68,-0.456 -1.128,-0.456c-0.448,0 -0.824,0.152 -1.128,0.456c-0.304,0.304 -0.456,0.68 -0.456,1.128Zm5.536,6.24c-0,-0.394 0.074,-0.762 0.224,-1.104c0.149,-0.341 0.352,-0.64 0.608,-0.896c0.256,-0.256 0.554,-0.458 0.896,-0.608c0.341,-0.149 0.709,-0.224 1.104,-0.224c0.394,0 0.762,0.075 1.104,0.224c0.341,0.15 0.64,0.352 0.896,0.608c0.256,0.256 0.458,0.555 0.608,0.896c0.149,0.342 0.224,0.71 0.224,1.104c-0,0.395 -0.075,0.763 -0.224,1.104c-0.15,0.342 -0.352,0.64 -0.608,0.896c-0.256,0.256 -0.555,0.459 -0.896,0.608c-0.342,0.15 -0.71,0.224 -1.104,0.224c-0.395,0 -0.763,-0.074 -1.104,-0.224c-0.342,-0.149 -0.64,-0.352 -0.896,-0.608c-0.256,-0.256 -0.459,-0.554 -0.608,-0.896c-0.15,-0.341 -0.224,-0.709 -0.224,-1.104Zm1.248,0c-0,0.448 0.152,0.824 0.456,1.128c0.304,0.304 0.68,0.456 1.128,0.456c0.448,0 0.824,-0.152 1.128,-0.456c0.304,-0.304 0.456,-0.68 0.456,-1.128c-0,-0.448 -0.152,-0.824 -0.456,-1.128c-0.304,-0.304 -0.68,-0.456 -1.128,-0.456c-0.448,0 -0.824,0.152 -1.128,0.456c-0.304,0.304 -0.456,0.68 -0.456,1.128Z" style="fill-rule:nonzero;"/><path id="Battery-Power-Unit" serif:id="Battery Power Unit" d="M307.213,382.125l1.6,0l2.496,9.056l0.032,0l2.672,-9.056l1.76,0l2.672,9.056l0.032,0l2.496,-9.056l1.6,0l-3.296,11.328l-1.616,0l-2.752,-9.248l-0.032,0l-2.736,9.248l-1.616,0l-3.312,-11.328Z" style="fill-rule:nonzero;"/></g><g id="Solar-Info" serif:id="Solar Info"><path d="M340,10l-120,0l0,120l99.587,0c11.274,-0 20.413,-9.139 20.413,-20.413l0,-99.587Z" style="fill-opacity:0.1;stroke:#000;stroke-width:1px;"/><path id="Solar-Panel-Icon" serif:id="Solar Panel Icon" d="M283.973,91.796l10.418,-0m-16.221,14.306l10.97,-0m-13.595,7.132l10.936,-0m-5.686,-14.289l10.97,-0m0.786,-9.44l-9.197,25.493m3.679,-25.493l-9.197,25.493m21.187,-28.027l3.261,0l-11.171,30.627l-3.294,0m-0.786,-30.627l11.99,0l-11.204,30.627l-16.497,0l7.902,-21.672m-20.26,10.176l10.318,-0m-12.901,7.132l10.276,-0m3.102,-13.119l-5.477,14.883m-0.97,-14.916l-5.485,14.916m16.723,-16.547l-7.049,19.147l-15.217,0l7.107,-19.331m0.334,-15.811l-5.2,0.234m28.428,-1.237l-5.201,0.226m-3.972,-7.091l2.91,-4.306m-15.886,23.562l2.91,-4.306m-2.434,-12.542l-4.339,-2.884m23.587,15.886l-4.306,-2.91m1.062,-8.035l4.908,-1.731m-26.865,9.482l4.9,-1.731m5.493,-11.513l-1.731,-4.891m9.499,26.755l-1.739,-4.891m5.618,-5.853l4.975,1.522m-27.207,-8.294l5.017,1.522m11.22,-5.987l1.522,-4.967m-8.319,27.183l1.521,-4.975m8.011,-1.372l3.093,4.181m-16.923,-22.859l3.094,4.18m12.617,1.881l4.18,-3.085m-22.868,16.906l4.181,-3.085m7.258,3.621l-0,5.2m-0,-28.428l-0,5.226m9.021,9.013l0,0.017c0,4.954 -4.076,9.03 -9.03,9.03c-4.954,0 -9.03,-4.076 -9.03,-9.03c0,-4.954 4.076,-9.03 9.03,-9.03l0.017,-0c4.945,-0 9.013,4.069 9.013,9.013Z" style="fill:none;fill-rule:nonzero;stroke:#000;stroke-width:1.5px;stroke-linecap:round;stroke-miterlimit:4;"/><path id="Solar-Power-Unit" serif:id="Solar Power Unit" d="M304.133,30.957l1.44,0l-0,7.808l3.264,-3.28l2,0l-3.536,3.44l3.84,4.128l-2.048,0l-3.52,-3.936l-0,3.936l-1.44,0l-0,-12.096Z" style="fill-rule:nonzero;"/><path d="M311.365,31.725l1.6,0l2.496,9.056l0.032,0l2.672,-9.056l1.76,0l2.672,9.056l0.032,0l2.496,-9.056l1.6,0l-3.296,11.328l-1.616,0l-2.752,-9.248l-0.032,0l-2.736,9.248l-1.616,0l-3.312,-11.328Z" style="fill-rule:nonzero;"/></g><g id="xtender"><rect x="240.986" y="216.485" width="78.027" height="61.219" style="fill:none;stroke:#000;stroke-width:1px;stroke-linecap:round;"/><path d="M293.172,233.603c0,-2.08 -1.686,-3.765 -3.765,-3.765c-4.862,-0 -13.953,-0 -18.815,-0c-2.079,-0 -3.765,1.685 -3.765,3.765c0,6.246 0,19.822 0,26.068c0,2.08 1.686,3.765 3.765,3.765c4.862,0 13.953,0 18.815,0c2.079,0 3.765,-1.685 3.765,-3.765l0,-26.068Zm-4.18,18.959c0,-2.445 -1.985,-4.43 -4.429,-4.43l-9.126,0c-2.445,0 -4.43,1.985 -4.43,4.43c0,2.444 1.985,4.429 4.43,4.429l9.126,0c2.444,0 4.429,-1.985 4.429,-4.429Zm-6.527,-14.908c-0.187,0.187 -0.182,0.48 -0.004,0.667c0.542,0.575 0.877,1.343 0.896,2.192c0.044,1.836 -1.477,3.419 -3.313,3.438c-1.876,0.029 -3.401,-1.482 -3.401,-3.352c0,-0.883 0.341,-1.683 0.897,-2.283c0.178,-0.187 0.178,-0.479 -0.005,-0.662c-0.191,-0.192 -0.503,-0.187 -0.685,0.01c-0.696,0.738 -1.132,1.722 -1.166,2.81c-0.067,2.341 1.837,4.364 4.177,4.436c2.446,0.077 4.456,-1.884 4.456,-4.316c-0,-1.136 -0.442,-2.163 -1.161,-2.93c-0.182,-0.197 -0.499,-0.202 -0.691,-0.01Zm-2.465,-1.371c-0.263,-0 -0.479,0.216 -0.479,0.479l-0,3.837c-0,0.264 0.216,0.479 0.479,0.479c0.264,0 0.48,-0.215 0.48,-0.479l0,-3.837c0,-0.263 -0.216,-0.479 -0.48,-0.479Z"/><path d="M319.013,216.485l-78.027,-0l-0,61.219l78.027,0l0,-61.219Zm-30.021,36.077c0,-2.445 -1.985,-4.43 -4.429,-4.43l-9.126,0c-2.445,0 -4.43,1.985 -4.43,4.43c0,2.444 1.985,4.429 4.43,4.429l9.126,0c2.444,0 4.429,-1.985 4.429,-4.429Z" style="fill-opacity:0.1;"/><path d="M269.746,223.48c0.026,0.002 0.052,0.003 0.078,0.003l20.351,0c0.026,0 0.052,-0.001 0.078,-0.003l24.749,-1.937c0.247,-0.019 0.478,-0.13 0.649,-0.31c-0,-0 0.843,-0.893 1.877,-1.989c2.692,-2.85 4.012,-6.731 3.616,-10.633c-0,0 -0,0 -0,0c-0.453,-4.458 -1.387,-10.448 -3.225,-14.529c-1.392,-3.09 -3.367,-5.082 -5.837,-5.082c-5.235,0 -31.7,0.11 -32.082,0.112c-0.382,-0.002 -26.847,-0.112 -32.083,-0.112c-2.47,0 -4.445,1.992 -5.837,5.082c-1.838,4.081 -2.772,10.071 -3.227,14.529c0,-0 0,-0 0,0c-0.396,3.902 0.925,7.783 3.618,10.634c1.034,1.095 1.878,1.988 1.878,1.988c0.17,0.18 0.401,0.291 0.649,0.31l24.748,1.937Zm-22.765,-10.384l66.037,0c0.552,0 1,-0.448 1,-1c-0,-0.552 -0.448,-1 -1,-1l-66.037,0c-0.552,0 -1,0.448 -1,1c0,0.552 0.448,1 1,1Zm1.44,-7.523l63.157,0c0.552,0 1,-0.448 1,-1c0,-0.552 -0.448,-1 -1,-1l-63.157,0c-0.552,0 -1,0.448 -1,1c-0,0.552 0.448,1 1,1Zm2.937,-7.523l57.283,-0c0.552,-0 1,-0.448 1,-1c0,-0.552 -0.448,-1 -1,-1l-57.283,-0c-0.552,-0 -1,0.448 -1,1c-0,0.552 0.448,1 1,1Z" style="fill:#232300;"/><path d="M251.358,198.05l57.283,-0c0.552,-0 1,-0.448 1,-1c0,-0.552 -0.448,-1 -1,-1l-57.283,-0c-0.552,-0 -1,0.448 -1,1c-0,0.552 0.448,1 1,1Z" style="fill-opacity:0.2;"/><path d="M248.421,205.573l63.157,0c0.552,0 1,-0.448 1,-1c0,-0.552 -0.448,-1 -1,-1l-63.157,0c-0.552,0 -1,0.448 -1,1c-0,0.552 0.448,1 1,1Z" style="fill-opacity:0.2;"/><path d="M246.981,213.096l66.037,0c0.552,0 1,-0.448 1,-1c-0,-0.552 -0.448,-1 -1,-1l-66.037,0c-0.552,0 -1,0.448 -1,1c0,0.552 0.448,1 1,1Z" style="fill-opacity:0.2;"/><path d="M292.423,299.443l-41.065,0c-0.552,0 -1,0.448 -1,1c-0,0.552 0.448,1 1,1l41.065,0c0.552,0 1,-0.448 1,-1c-0,-0.552 -0.448,-1 -1,-1Z" style="fill-opacity:0.2;"/><path d="M292.423,291.163l-44.002,-0c-0.552,-0 -1,0.448 -1,1c-0,0.552 0.448,1 1,1l44.002,-0c0.552,-0 1,-0.448 1,-1c-0,-0.552 -0.448,-1 -1,-1Z" style="fill-opacity:0.2;"/><path d="M313.018,282.882l-66.037,0c-0.552,0 -1,0.448 -1,1c0,0.552 0.448,1 1,1l66.037,0c0.552,0 1,-0.448 1,-1c-0,-0.552 -0.448,-1 -1,-1Z" style="fill-opacity:0.2;"/><path d="M290.7,271.781c-0.028,-0.002 -0.057,-0.003 -0.085,-0.003l-21.23,-0c-0.029,-0 -0.058,0.001 -0.086,0.003l-25.818,2.22c-0.26,0.022 -0.502,0.146 -0.672,0.344c-0,-0 -1.248,1.451 -2.592,3.018c-2.346,2.729 -3.506,6.283 -3.22,9.872c0,0 0.001,0 0.001,0.001c0.471,5.833 1.647,14.921 4.347,19.852c1.343,2.453 3.1,3.912 5.187,3.912c5.46,-0 33.059,-0.126 33.468,-0.128c0.408,0.002 28.007,0.128 33.467,0.128c2.088,-0 3.844,-1.459 5.187,-3.911c2.701,-4.932 3.877,-14.02 4.352,-19.852c-0,-0.001 -0,-0.002 -0,-0.002c0.286,-3.59 -0.875,-7.145 -3.223,-9.875c-1.345,-1.565 -2.593,-3.015 -2.593,-3.015c-0.17,-0.198 -0.412,-0.322 -0.672,-0.344l-25.818,-2.22Zm30.341,20.092c-0.583,4.723 -1.579,10.107 -3.291,13.721c-1.101,2.324 -2.461,3.922 -4.283,3.922c-1.779,0 -5.913,-0.013 -10.688,-0.031c-0,-0 -0,-15.025 -0,-15.025c-0,-0.686 0.272,-1.344 0.758,-1.83c0.485,-0.485 1.143,-0.757 1.829,-0.757l15.675,-0Zm-28.618,7.57l-41.065,0c-0.552,0 -1,0.448 -1,1c-0,0.552 0.448,1 1,1l41.065,0c0.552,0 1,-0.448 1,-1c-0,-0.552 -0.448,-1 -1,-1Zm-0,-8.28l-44.002,-0c-0.552,-0 -1,0.448 -1,1c-0,0.552 0.448,1 1,1l44.002,-0c0.552,-0 1,-0.448 1,-1c-0,-0.552 -0.448,-1 -1,-1Zm20.595,-8.281l-66.037,0c-0.552,0 -1,0.448 -1,1c0,0.552 0.448,1 1,1l66.037,0c0.552,0 1,-0.448 1,-1c-0,-0.552 -0.448,-1 -1,-1Z"/><path d="M321.041,291.873c-0.583,4.723 -1.579,10.107 -3.291,13.721c-1.101,2.324 -2.461,3.922 -4.283,3.922c-1.779,0 -5.913,-0.013 -10.688,-0.031c-0,-0 -0,-15.025 -0,-15.025c-0,-0.686 0.272,-1.344 0.758,-1.83c0.485,-0.485 1.143,-0.757 1.829,-0.757l15.675,-0Z" style="fill-opacity:0.1;"/></g></svg>