<?xml version="1.0" encoding="UTF-8" standalone="no"?><!DOCTYPE svg PUBLIC "-//W3C//DTD SVG 1.1//EN" "http://www.w3.org/Graphics/SVG/1.1/DTD/svg11.dtd"><svg width="100%" height="100%" viewBox="0 0 920 230" version="1.1" xmlns="http://www.w3.org/2000/svg" xmlns:xlink="http://www.w3.org/1999/xlink" xml:space="preserve" xmlns:serif="http://www.serif.com/" style="fill-rule:evenodd;clip-rule:evenodd;stroke-linejoin:round;stroke-miterlimit:2;"><rect id="logo" x="0" y="0" width="920" height="230" style="fill:none;"/><g><path d="M96.518,141.327C85.478,141.327 75.287,131.136 75.287,116.699C75.287,102.261 85.478,92.07 96.518,92.07C107.558,92.07 117.749,102.261 117.749,116.699C117.749,131.136 107.558,141.327 96.518,141.327ZM96.518,155.764C116.9,155.764 133.036,139.628 133.036,116.699C133.036,93.769 116.9,77.633 96.518,77.633C76.136,77.633 60,93.769 60,116.699C60,139.628 76.136,155.764 96.518,155.764Z" style="fill:rgb(245,245,245);fill-rule:nonzero;"/><path d="M149.172,182.091L164.459,182.091L164.459,147.272C165.987,148.8 167.686,150.329 169.724,151.518C173.291,153.726 178.386,155.764 185.69,155.764C206.072,155.764 222.208,139.628 222.208,116.699C222.208,93.769 206.072,77.633 185.69,77.633C178.047,77.633 172.442,79.841 168.875,81.879C166.837,83.068 165.138,84.597 163.609,86.125L160.212,78.482L149.172,78.482L149.172,182.091ZM184.841,141.327C173.121,141.327 162.76,131.136 162.76,116.699C162.76,102.261 173.121,92.07 184.841,92.07C196.561,92.07 206.921,102.261 206.921,116.699C206.921,131.136 196.561,141.327 184.841,141.327Z" style="fill:rgb(245,245,245);fill-rule:nonzero;"/><path d="M287.601,132.834C285.053,136.231 279.958,141.327 270.616,141.327C259.575,141.327 251.083,133.004 250.234,123.493L304.586,123.493L304.926,121.454C305.096,120.265 305.435,118.567 305.435,116.699C305.435,93.769 289.469,77.633 269.766,77.633C250.064,77.633 234.098,93.769 234.098,116.699C234.098,139.628 250.234,155.764 270.616,155.764C288.45,155.764 298.811,145.573 303.737,132.834L287.601,132.834ZM250.234,110.754C252.102,99.713 259.575,92.07 269.766,92.07C281.826,92.07 289.13,99.713 290.998,110.754L250.234,110.754Z" style="fill:rgb(245,245,245);fill-rule:nonzero;"/><path d="M321.571,154.915L336.858,154.915L336.858,110.754C336.858,100.732 345.18,92.07 355.541,92.07C365.053,92.07 373.376,100.732 373.376,110.754L373.376,154.915L388.662,154.915L388.662,110.754C388.662,91.221 375.074,77.633 358.089,77.633C350.446,77.633 344.841,79.841 341.274,81.879C339.236,83.068 337.537,84.597 336.008,86.125L332.611,78.482L321.571,78.482L321.571,154.915Z" style="fill:rgb(245,245,245);fill-rule:nonzero;"/><path d="M425.18,129.437C425.633,132.042 426.709,134.108 428.408,135.637C430.106,137.166 432.427,137.93 435.372,137.93C438.316,137.93 440.609,137.222 442.251,135.807C443.892,134.391 444.713,132.834 444.713,131.136C444.713,129.777 443.723,128.673 441.741,127.824C439.759,126.975 437.297,126.125 434.352,125.276C431.408,124.427 428.209,123.436 424.756,122.304C421.302,121.171 418.103,119.671 415.159,117.803C412.215,115.934 409.752,113.471 407.771,110.414C405.789,107.357 404.798,103.507 404.798,98.864C404.798,95.694 405.478,92.665 406.837,89.777C408.195,86.89 410.149,84.37 412.696,82.219C415.244,80.067 418.358,78.34 422.038,77.038C425.718,75.736 429.88,75.085 434.522,75.085C444.713,75.085 452.47,77.35 457.792,81.879C463.114,86.408 466.398,92.07 467.643,98.864L445.563,100.563C445.11,98.864 444.091,97.307 442.505,95.892C440.92,94.476 438.825,93.769 436.221,93.769C433.616,93.769 431.691,94.335 430.446,95.467C429.2,96.599 428.577,98.015 428.577,99.713C428.577,101.185 429.568,102.318 431.55,103.11C433.531,103.903 435.994,104.724 438.938,105.573C441.883,106.423 445.081,107.413 448.535,108.546C451.989,109.678 455.188,111.178 458.132,113.047C461.076,114.915 463.539,117.378 465.52,120.435C467.502,123.493 468.493,127.343 468.493,131.985C468.493,135.156 467.785,138.213 466.369,141.157C464.954,144.101 462.887,146.734 460.17,149.055C457.452,151.377 454.14,153.217 450.234,154.575C446.327,155.934 441.939,156.614 437.07,156.614C426.426,156.614 418.415,154.292 413.036,149.65C407.657,145.007 404.345,138.836 403.1,131.136L425.18,129.437Z" style="fill:rgb(245,245,245);fill-rule:nonzero;"/><path d="M488.875,98.015L476.985,98.015L476.985,78.482L482.93,78.482C489.158,78.482 492.272,75.368 492.272,69.14L492.272,58.1L511.805,58.1L511.805,76.783L527.941,76.783L527.941,98.015L511.805,98.015L511.805,123.493C511.805,126.89 512.767,129.579 514.692,131.561C516.617,133.542 519.052,134.533 521.996,134.533C522.902,134.533 523.694,134.505 524.374,134.448C525.053,134.391 525.676,134.306 526.242,134.193C526.808,134.08 527.374,133.91 527.941,133.684L527.941,154.066C527.035,154.406 526.016,154.689 524.883,154.915C522.619,155.481 519.958,155.764 516.9,155.764C507.955,155.764 501.047,153.301 496.178,148.376C491.309,143.45 488.875,136.288 488.875,126.89L488.875,98.015Z" style="fill:rgb(245,245,245);fill-rule:nonzero;"/><path d="M573.8,155.764C569.158,155.764 564.912,155 561.062,153.471C557.212,151.943 553.9,149.735 551.125,146.847C548.351,143.96 546.2,140.478 544.671,136.401C543.142,132.325 542.378,127.739 542.378,122.643L542.378,76.783L565.308,76.783L565.308,118.397C565.308,123.493 566.638,127.456 569.299,130.287C571.96,133.117 575.442,134.533 579.745,134.533C584.048,134.533 587.53,133.117 590.191,130.287C592.852,127.456 594.183,123.493 594.183,118.397L594.183,76.783L617.113,76.783L617.113,154.915L600.127,154.915L596.73,147.272C594.805,148.857 592.654,150.272 590.276,151.518C588.238,152.65 585.832,153.641 583.057,154.49C580.283,155.34 577.197,155.764 573.8,155.764Z" style="fill:rgb(245,245,245);fill-rule:nonzero;"/><path d="M667.219,155.764C662.35,155.764 657.707,154.774 653.291,152.792C648.875,150.81 644.996,148.036 641.656,144.469C638.316,140.902 635.655,136.684 633.673,131.815C631.691,126.946 630.701,121.624 630.701,115.849C630.701,110.074 631.691,104.752 633.673,99.883C635.655,95.014 638.316,90.796 641.656,87.229C644.996,83.662 648.875,80.888 653.291,78.907C657.707,76.925 662.35,75.934 667.219,75.934C670.163,75.934 672.852,76.274 675.287,76.953C677.721,77.633 679.788,78.425 681.486,79.331C683.524,80.35 685.28,81.483 686.752,82.728L686.752,47.909L709.682,47.909L709.682,154.915L692.696,154.915L689.299,147.272C687.488,148.857 685.506,150.272 683.355,151.518C681.43,152.65 679.108,153.641 676.391,154.49C673.673,155.34 670.616,155.764 667.219,155.764ZM653.631,115.849C653.631,121.398 655.272,125.899 658.556,129.352C661.84,132.806 665.86,134.533 670.616,134.533C675.372,134.533 679.391,132.806 682.675,129.352C685.959,125.899 687.601,121.398 687.601,115.849C687.601,110.301 685.959,105.8 682.675,102.346C679.391,98.892 675.372,97.166 670.616,97.166C665.86,97.166 661.84,98.892 658.556,102.346C655.272,105.8 653.631,110.301 653.631,115.849Z" style="fill:rgb(245,245,245);fill-rule:nonzero;"/><path d="M798.854,131.985C797.834,135.156 796.306,138.213 794.268,141.157C792.229,144.101 789.682,146.734 786.624,149.055C783.567,151.377 780.028,153.217 776.008,154.575C771.989,155.934 767.431,156.614 762.335,156.614C757.013,156.614 752.003,155.566 747.304,153.471C742.604,151.377 738.471,148.489 734.904,144.809C731.338,141.129 728.507,136.826 726.412,131.9C724.317,126.975 723.27,121.624 723.27,115.849C723.27,110.074 724.317,104.724 726.412,99.798C728.507,94.873 731.366,90.57 734.989,86.89C738.613,83.209 742.831,80.322 747.643,78.227C752.456,76.132 757.636,75.085 763.185,75.085C768.507,75.085 773.489,76.047 778.132,77.972C782.774,79.897 786.822,82.643 790.276,86.21C793.73,89.777 796.447,94.08 798.429,99.119C800.41,104.158 801.401,109.735 801.401,115.849C801.401,116.755 801.345,117.633 801.231,118.482L800.552,123.493L747.049,123.493C747.955,126.437 749.795,129.154 752.569,131.645C755.343,134.137 758.882,135.382 763.185,135.382C765.336,135.382 767.176,135.127 768.705,134.618C770.234,134.108 771.451,133.514 772.357,132.834C773.489,132.155 774.395,131.306 775.074,130.287L798.854,131.985ZM763.185,96.316C758.882,96.316 755.343,97.59 752.569,100.138C749.795,102.686 747.955,105.658 747.049,109.055L779.321,109.055C778.415,105.658 776.575,102.686 773.8,100.138C771.026,97.59 767.488,96.316 763.185,96.316Z" style="fill:rgb(245,245,245);fill-rule:nonzero;"/><path d="M853.206,75.934C854.225,75.934 855.159,75.991 856.008,76.104C856.858,76.217 857.565,76.331 858.132,76.444C858.811,76.557 859.434,76.67 860,76.783L860,100.563C859.321,100.336 858.528,100.053 857.622,99.713C856.829,99.487 855.924,99.289 854.904,99.119C853.885,98.949 852.753,98.864 851.507,98.864C847.205,98.864 843.723,100.28 841.062,103.11C838.401,105.941 837.07,109.904 837.07,115L837.07,154.915L814.14,154.915L814.14,76.783L831.125,76.783L834.522,85.276C835.881,83.577 837.523,82.049 839.448,80.69C841.033,79.444 842.987,78.34 845.308,77.378C847.629,76.415 850.262,75.934 853.206,75.934Z" style="fill:rgb(245,245,245);fill-rule:nonzero;"/></g></svg>